<svg width="360" height="372" viewBox="0 0 360 372" fill="none" xmlns="http://www.w3.org/2000/svg">
<g clip-path="url(#clip0_7720_903)">
<rect width="360" height="381" rx="16" fill="#E4E0DB"/>
<path d="M312.238 214.047H201.943V435.707H312.238V214.047Z" fill="#A2DCEA"/>
<path d="M296.513 309.602H279.879V355.7H296.513V309.602Z" fill="#E6F5F9"/>
<path opacity="0.5" d="M296.781 214L201.572 309.209V247.538L235.11 214H296.781Z" fill="#E6F5F9"/>
<path opacity="0.5" d="M311.319 251.786V275.258L201.572 385V361.527L311.319 251.786Z" fill="#E6F5F9"/>
<path opacity="0.5" d="M335.708 367.684V379.805L259.756 455.75H247.648L335.708 367.684Z" fill="#E6F5F9"/>
<path d="M177.891 287.547L199.34 277.688L201.201 276.771C205.896 274.556 205.149 272.178 206.915 269.787L211.264 264.018C211.454 263.767 211.828 263.76 212.031 263.998C212.317 264.345 212.561 264.711 212.317 265.343C211.712 266.906 209.898 269.128 209.898 269.128C209.898 269.128 215.367 265.955 217.514 264.664C219.661 263.373 220.68 264.793 220.68 264.793C222.161 264.188 222.637 265.703 221.964 266.546C222.773 267.49 220.592 270.765 220.592 270.765L217.786 274.529C216.964 275.637 215.863 276.506 214.6 277.063L206.684 280.542L202.696 283.518L181.791 299.423" fill="#955747"/>
<path d="M130.554 306.767C128.896 337.287 133.197 368.54 133.197 368.54L116.212 414.516L139.991 424.707C145.426 399.114 152.445 385.981 152.9 373.072C153.355 360.163 154.558 350.651 154.558 350.651V421.765H179.377C175.321 389.833 176.299 340.29 175.321 319.479L172.603 306.774H130.554V306.767Z" fill="#394450"/>
<path d="M139.6 257.679H162.666V275.005H139.6V257.679Z" fill="#955747"/>
<path d="M137.613 267.531C147.634 273.986 162.656 267.531 162.656 267.531V306.768H137.613V267.531Z" fill="#FEF9F3"/>
<path d="M156.264 255.363L154.573 304.75C154.335 311.653 159.424 317.584 166.279 318.399L175.329 319.479L174.351 298.662C178.135 303.078 182.13 302.025 186.335 300.347C190.541 298.662 204.211 292.568 204.211 292.568L197.485 278.483L182.558 285.325L174.113 265.425C172.326 261.206 168.609 258.114 164.139 257.123L156.278 255.37L156.264 255.363Z" fill="#0E2135"/>
<path d="M136.506 233.037C136.506 240.898 142.879 247.278 150.74 247.278C152.275 247.278 153.756 247.033 155.142 246.585C158.132 245.613 160.686 243.684 162.439 241.156C162.507 241.048 162.582 240.939 162.657 240.823C164.124 238.581 164.98 235.911 164.98 233.037C164.98 225.176 158.607 218.803 150.74 218.803C146.296 218.803 142.329 220.842 139.727 224.035C138.035 226.094 136.907 228.641 136.601 231.434C136.594 231.801 136.567 232.147 136.52 232.473C136.513 232.664 136.506 232.847 136.506 233.037V233.037Z" fill="#955747"/>
<path d="M161.509 259.229H143.294C143.294 259.229 146.161 250.104 141.453 248.446C136.744 246.789 136.513 246.639 136.622 242.039C136.799 239.458 134.767 239.791 134.767 238.296C134.767 236.801 136.513 235.075 136.602 231.427L162.664 240.823C157.711 248.392 154.83 250.573 161.788 259.106L161.509 259.222V259.229Z" fill="#955747"/>
<path d="M141.52 228.974L144.238 230.421C144.238 230.421 145.848 231.087 144.999 232.813C144.713 233.397 144.754 234.111 145.073 234.484C145.4 234.865 145.936 235.069 146.46 234.987C146.894 234.919 147.316 234.647 147.587 234.104C147.601 234.097 147.608 234.083 147.601 234.077C147.635 234.029 147.662 233.981 147.682 233.927L154.116 234.926C154.116 234.926 154.538 238.214 154.565 238.466C154.755 240.042 154.776 241.414 154.286 242.957C153.824 244.417 153.118 245.797 152.601 247.237C151.773 249.56 151.433 252.068 151.616 254.527C151.725 255.974 152.031 257.455 152.846 258.665C153.328 259.378 153.967 259.969 154.646 260.499C156.793 262.164 159.45 263.237 162.168 263.23C164.063 263.23 165.972 262.666 167.535 261.586C168.248 261.097 168.826 260.438 169.519 259.949C170.096 259.534 170.708 259.181 171.245 258.705C176.762 254.887 176.51 248.684 171.503 244.438C166.489 240.191 165.334 238.805 164.98 233.044C164.98 225.183 158.607 218.81 150.74 218.81C146.296 218.81 142.329 220.848 139.726 224.042C139.462 226.134 139.4 227.874 141.52 228.981V228.974Z" fill="#0E2135"/>
<path d="M150.747 238.805C148.867 238.805 147.343 237.281 147.343 235.401C147.343 233.521 148.867 231.997 150.747 231.997C152.626 231.997 154.15 233.521 154.15 235.401C154.15 237.281 152.626 238.805 150.747 238.805Z" fill="#955747"/>
<path d="M131.043 317.631C145.515 317.631 147.424 309.573 146.609 296.332C146.609 295.788 144.068 255.356 144.068 255.356L133.503 256.613C128.794 257.17 124.867 260.465 123.495 265.004L114.35 295.272L117.883 326.586L132.09 323.773L131.05 317.625L131.043 317.631Z" fill="#0E2135"/>
<path d="M132.064 323.658L132.444 326.498C132.485 327.238 132.845 328.026 133.266 328.638C133.688 329.249 134.197 329.786 134.686 330.336C135.101 330.805 135.522 331.403 135.339 331.994C135.216 332.381 134.87 332.64 134.639 332.972C134.408 333.292 134.286 333.693 134.286 334.087C134.299 334.977 134.557 335.901 134.632 336.791C134.693 337.525 134.748 338.292 134.435 338.958C134.122 339.624 133.28 340.093 132.628 339.753C132.2 339.536 131.935 339.019 131.459 338.945C131.194 338.904 130.929 339.013 130.657 339.047C130.195 339.101 129.706 338.89 129.428 338.51C129.115 338.082 129.04 337.463 128.592 337.185C128.144 336.9 127.471 337.076 127.084 336.709C126.86 336.492 126.798 336.152 126.595 335.914C126.364 335.643 125.997 335.554 125.684 335.391C124.95 335.011 124.495 334.162 124.577 333.346C124.76 331.437 123.897 327.585 123.394 325.506L132.05 323.665L132.064 323.658Z" fill="#955747"/>
<path d="M55.4221 332.878L50.707 430.537H72.2242V321.654L55.4221 332.878Z" fill="#788B8C"/>
<path d="M85.8613 321.654C89.204 380.274 83.4086 430.537 83.4086 430.537H57.1695C64.6295 366.189 54.411 340.365 55.5117 321.654H85.8613V321.654Z" fill="#8BA1A6"/>
<path d="M66.6452 252.496C63.9276 252.666 61.3322 252.061 59.0969 250.865C57.2829 249.907 55.6999 248.562 54.4565 246.938C54.4294 246.891 54.3886 246.843 54.3546 246.796C52.7512 244.655 51.7321 242.04 51.5554 239.173C51.0662 231.325 57.0315 224.565 64.8788 224.076C65.103 224.062 65.334 224.056 65.5582 224.049C70.4636 223.974 74.8798 226.413 77.4888 230.218C78.6234 231.855 79.4183 233.744 79.7784 235.803C79.7784 235.816 79.7784 235.83 79.7784 235.843C79.8396 236.17 79.8803 236.496 79.9143 236.835C79.9346 237.019 79.9482 237.209 79.9618 237.399C80.451 245.247 74.4857 252.007 66.6384 252.496H66.6452Z" fill="#EFB7A8"/>
<path d="M82.0395 242.543C82.1346 244.037 80.0828 243.833 80.4225 246.395C82.0395 255.411 71.2164 253.4 75.0483 268.041L53.5176 264.991C57.2272 260.085 58.9393 256.199 56.9962 251.321C56.4527 249.955 55.617 248.508 54.4552 246.938C54.428 246.891 54.3872 246.843 54.3532 246.796L62.9343 243.086L63.3555 242.903L69.3004 240.334L69.3752 240.3L73.0032 238.731L79.7771 235.803C79.7771 235.803 79.7771 235.83 79.7771 235.843C79.8042 236.197 79.8518 236.523 79.9129 236.835C80.4429 239.757 81.9444 241.197 82.0327 242.543H82.0395Z" fill="#EFB7A8"/>
<path d="M80.718 225.632C80.3171 226.026 79.9026 226.352 79.4135 226.481C79.9434 226.528 80.4462 226.902 80.6636 227.398C80.9557 228.071 80.7723 228.886 80.3307 229.477C80.188 229.674 80.0113 229.851 79.8007 229.959C79.3862 230.184 78.8631 230.136 78.4487 229.925C78.0274 229.715 77.681 229.525 77.4024 229.144C77.4771 229.497 77.5043 229.857 77.4907 230.218C77.4907 230.333 77.4839 230.449 77.4771 230.557C77.4296 231.012 77.3141 231.468 77.0491 231.835C76.4716 232.623 75.2146 232.779 74.4605 232.161C74.1887 231.936 73.9849 231.638 73.6791 231.454C73.1968 231.162 72.5242 231.271 72.1165 231.658C71.7021 232.045 71.5933 232.772 71.7224 233.329L73.0065 238.731L74.4537 244.805L70.3433 246.218L69.3785 240.3L69.3173 239.94L69.2494 239.96L62.6658 241.659C62.8017 242.087 62.8968 242.569 62.9376 243.086C63.1958 245.865 62.1087 249.588 59.0989 250.865C58.4806 251.13 57.7808 251.293 56.9995 251.32C56.456 249.955 55.6203 248.507 54.4585 246.938C54.4313 246.89 54.3905 246.843 54.3566 246.795C52.7531 244.655 51.734 242.039 51.5574 239.172C51.0682 231.325 57.0334 224.565 64.8807 224.076C65.1049 224.062 65.3359 224.055 65.5601 224.048C68.6447 224.048 70.0987 222.153 71.0159 221.188C71.6953 220.475 72.232 219.598 73.0948 219.123C74.08 218.579 75.4321 218.735 76.2134 219.544C76.8589 220.217 77.0899 221.338 76.723 222.173C77.3413 221.378 78.3603 220.896 79.3659 220.957C80.3374 221.011 81.3158 221.623 81.6012 222.554C81.7099 222.9 81.7166 223.274 81.6691 223.634C81.574 224.381 81.2479 225.108 80.718 225.632V225.632Z" fill="#955646"/>
<path d="M65.9039 244.05C67.7838 244.05 69.3078 242.526 69.3078 240.647C69.3078 238.767 67.7838 237.243 65.9039 237.243C64.024 237.243 62.5 238.767 62.5 240.647C62.5 242.526 64.024 244.05 65.9039 244.05Z" fill="#EFB7A8"/>
<path d="M74.6366 266.274C79.2906 276.636 78.4141 279.706 80.9144 287.642C83.4146 295.584 86.044 314.153 85.8538 321.654C76.4778 328.781 52.8409 329.345 45.8973 340.039C46.8349 315.464 43.6484 298.771 45.707 284.7C47.7725 270.629 55.6333 262.871 56.6048 260.119L74.6366 266.274Z" fill="#4D5D6E"/>
<path d="M75.8045 261.783L73.6712 269.542L54.3281 263.923L55.0007 256.389L75.8045 261.783Z" fill="#4D5D6E"/>
<path d="M61.4688 330.602H78.9638L73.8682 273.572L54.3281 277.138L61.4688 330.602Z" fill="#4D5D6E"/>
<path d="M78.9644 330.602C79.6778 334.617 82.4838 336.288 83.3263 340.813C83.4282 341.364 83.1224 341.907 82.6061 342.111C81.9878 342.349 81.3016 342.029 81.0842 341.404C80.4931 339.665 79.5759 338.089 79.5759 338.089L71.1647 341.486C70.2747 336.383 71.4433 333.034 71.1647 330.602H78.9644Z" fill="#EFB7A8"/>
</g>
<defs>
<clipPath id="clip0_7720_903">
<rect width="360" height="372" rx="16" fill="white"/>
</clipPath>
</defs>
</svg>
