<svg width="360" height="372" viewBox="0 0 360 372" fill="none" xmlns="http://www.w3.org/2000/svg">
<g clip-path="url(#clip0_7720_958)">
<rect width="360" height="381" rx="16" fill="#FDE2BC"/>
<path d="M173.922 244.258L163.561 296.066C162.985 297.985 162.697 301.995 166.151 302.686" stroke="#97A9C1" stroke-width="7"/>
<path d="M289.873 238.544C299.158 238.508 306.657 230.773 306.62 221.266C306.584 211.759 299.027 204.081 289.741 204.116C280.456 204.151 272.957 211.887 272.993 221.394C273.03 230.901 280.587 238.579 289.873 238.544Z" fill="#DE9885"/>
<path d="M289.915 262.391C289.915 262.391 289.546 243.059 283.695 242.512C277.843 241.966 277.53 241.861 276.334 236.502C275.786 233.457 273.565 234.441 273.118 232.704C272.672 230.966 274.182 228.458 273.237 224.195L305.708 227.46C302.234 237.688 298.336 251.137 305.708 260.088L289.915 262.391Z" fill="#DE9885"/>
<path d="M153.099 264.838C152.758 264.918 152.407 264.898 152.096 264.798C152.096 264.788 152.076 264.788 152.076 264.788L149.047 263.845V263.815C148.255 263.645 147.623 262.963 147.583 262.11C147.523 261.087 148.305 260.225 149.318 260.175C150.321 260.115 151.194 260.887 151.254 261.89C151.494 261.589 151.845 261.358 152.257 261.258C153.239 261.027 154.232 261.639 154.463 262.632C154.704 263.615 154.092 264.607 153.099 264.838V264.838Z" fill="#F0EAE3"/>
<path d="M143.851 276.622L144.052 278.106C143.931 277.524 143.781 276.932 143.641 276.361C143.701 276.451 143.781 276.531 143.851 276.622V276.622Z" fill="#209959"/>
<path d="M144.473 281.175L144.523 281.476C144.523 281.476 144.503 281.406 144.483 281.376C144.493 281.305 144.493 281.235 144.483 281.175H144.473Z" fill="#209959"/>
<path d="M144.834 283.762L144.523 281.476C144.764 282.208 144.874 282.99 144.834 283.762Z" fill="#209959"/>
<path d="M153.078 276.351C151.674 278.587 150.029 280.774 149.497 283.361L144.162 283.993C144.413 283.14 144.503 282.258 144.483 281.375C144.503 281.405 144.513 281.435 144.523 281.476L144.834 283.762C144.874 282.99 144.764 282.208 144.523 281.476L144.473 281.175C144.493 281.235 144.493 281.305 144.473 281.365C144.082 280.242 143.39 279.219 142.467 278.467C141.214 277.444 139.619 276.933 138.205 276.14C136.791 275.348 135.447 274.074 135.347 272.45C135.297 271.607 135.618 270.745 136.199 270.143C136.771 269.552 137.613 269.201 138.426 269.331C139.198 269.471 139.85 270.023 140.301 270.675C140.752 271.327 141.043 272.069 141.374 272.791C141.976 274.064 142.728 275.278 143.631 276.361C143.771 276.933 143.921 277.524 144.042 278.106L143.841 276.622C143.771 276.531 143.691 276.451 143.631 276.361C143.56 276.09 143.5 275.829 143.43 275.569C142.738 272.791 142.217 269.722 143.55 267.195C144.754 264.898 147.482 263.304 149.999 263.905C152.496 264.507 154.742 266.382 155.204 268.91C155.685 271.507 154.462 274.105 153.068 276.351H153.078Z" fill="#209959"/>
<path d="M143.851 276.622L144.052 278.106C143.931 277.524 143.781 276.932 143.641 276.361C143.701 276.451 143.781 276.531 143.851 276.622V276.622Z" fill="#209959"/>
<path d="M144.473 281.175L144.523 281.476C144.523 281.476 144.503 281.406 144.483 281.376C144.493 281.305 144.493 281.235 144.483 281.175H144.473Z" fill="#209959"/>
<path d="M144.834 283.762L144.523 281.476C144.764 282.208 144.874 282.99 144.834 283.762Z" fill="#209959"/>
<path d="M158.092 281.175C158.092 283.803 157.741 286.069 157.22 288.115C155.786 293.771 153.028 297.813 152.556 303.218H141.414C140.943 297.813 138.185 293.771 136.751 288.115C136.24 286.069 135.889 283.803 135.889 281.175H158.092V281.175Z" fill="#15717E"/>
<path d="M136.681 269.185C136.843 268.185 136.164 267.242 135.163 267.08C134.163 266.917 133.22 267.597 133.058 268.597C132.895 269.598 133.575 270.54 134.575 270.703C135.576 270.865 136.518 270.186 136.681 269.185Z" fill="#F0EAE3"/>
<path d="M158.092 281.175C158.092 283.803 157.741 286.069 157.22 288.115H136.751C136.24 286.069 135.889 283.803 135.889 281.175H158.092V281.175Z" fill="#0D2135"/>
<path d="M308.917 255.771C303.005 257.388 292.164 257.969 286.038 258.07C281.357 271.095 272.859 274.664 273.889 285.772C275.036 298.075 279.568 320.645 279.568 320.645L317.552 325.424C318.704 303.55 317.546 302.398 317.552 288.583C317.561 267.284 315.244 264.981 308.917 255.771Z" fill="white"/>
<path d="M141.975 447.749L177.518 315.133L213.052 447.749" stroke="#3B4444" stroke-miterlimit="10"/>
<path d="M116.343 447.749L80.8 315.133L45.2656 447.749" stroke="#3B4444" stroke-miterlimit="10"/>
<path d="M253.074 302.686H9V315.35H253.074V302.686Z" fill="#FEFEFE"/>
<path d="M317.793 350.465H234.406V360.446H317.793V350.465Z" fill="#57697B"/>
<path d="M280.889 360.446L279.47 443.131H272.73L271.311 360.446H280.889Z" fill="white"/>
<path d="M249.801 360.446L231.199 443.131H238.255L259.422 360.446H249.801Z" fill="white"/>
<path d="M302.399 360.446L321 443.131H313.945L292.777 360.446H302.399Z" fill="white"/>
<path d="M239.728 354.232L213.922 428.796L183.64 420.745L213.221 347.9L239.728 354.232Z" fill="#967646"/>
<path d="M265.271 320.861L229.525 328.342C220.383 330.26 213.631 338.027 213.013 347.343L207.598 428.753H239.801L242.744 351.77H293.471C309.199 350.177 314.092 338.088 314.092 338.088L316.97 323.409L275.501 318.804L265.262 320.852L265.271 320.861Z" fill="#B6996F"/>
<rect x="280.682" y="223.823" width="13.6886" height="24.8884" rx="5" transform="rotate(18.9051 280.682 223.823)" fill="#0D2135"/>
<path d="M299.102 271.547C297.978 270.787 296.713 270.266 295.384 270.016C294.055 269.766 292.689 269.793 291.371 270.094C290.053 270.395 288.809 270.964 287.716 271.768C286.623 272.571 285.703 273.591 285.012 274.765L277.708 287.192C278.234 283.662 286.898 251.434 287.417 250.462C287.658 250.029 287.853 249.572 287.999 249.097L291.699 237.16C288.394 237.424 286.962 243.391 286.962 243.391L283.703 233.667C283.618 233.426 283.453 233.222 283.235 233.092C283.018 232.962 282.762 232.913 282.512 232.955C282.239 232.993 281.991 233.136 281.82 233.354C281.65 233.573 281.569 233.85 281.596 234.128L281.92 237.276L280.379 237.442L280.199 239.248L278.721 239.305L275.873 244.199L277.389 252.6C277.515 253.624 277.338 254.663 276.88 255.585C276.552 256.288 266.459 279.625 260.769 292.787C259.715 295.229 259.569 297.974 260.357 300.518C261.146 303.062 262.817 305.233 265.061 306.632C266.986 307.833 269.231 308.402 271.488 308.259C273.744 308.116 275.9 307.269 277.659 305.834L299.788 287.797C301.012 286.809 301.987 285.543 302.636 284.101C303.285 282.66 303.588 281.083 303.521 279.5C303.454 277.917 303.019 276.372 302.252 274.99C301.484 273.608 300.405 272.428 299.102 271.547Z" fill="#DE9885"/>
<path d="M280.705 277.933L286.462 266.996L310.639 271.601L307.473 283.114L294.521 295.778L280.705 277.933Z" fill="white"/>
<path d="M288.203 225.623C286.185 223.29 284.504 220.57 284.137 217.452C283.773 218.008 283.299 218.48 282.744 218.839C282.19 219.198 281.567 219.435 280.917 219.535C280.288 219.652 279.642 219.641 279.016 219.503C278.391 219.365 277.8 219.102 277.275 218.731C276.239 218.006 275.501 216.903 274.457 216.187C273.769 215.715 272.969 215.432 272.273 214.976C271.24 214.217 270.467 213.149 270.063 211.921C269.658 210.694 269.644 209.368 270.02 208.132C270.433 206.908 271.123 205.798 272.035 204.894C272.947 203.989 274.054 203.313 275.27 202.922C277.719 202.164 280.338 202.186 282.774 202.983C283.617 201.82 284.847 201.007 286.235 200.694C288.702 200.054 291.397 199.757 293.741 200.78C296.723 202.095 298.494 205.264 301.236 207.03C301.892 207.462 302.611 207.803 303.298 208.177C306.638 210.014 309.587 213.065 310.247 216.836C310.411 217.983 310.466 219.142 310.413 220.299L310.421 222.395C312.06 222.789 313.548 223.664 314.701 224.91C315.853 226.156 316.619 227.718 316.903 229.403C317.512 232.675 316.218 236.077 314.373 238.851C316.852 241.108 318.559 244.106 319.247 247.412C319.622 249.024 319.639 250.7 319.298 252.32C318.956 253.939 318.265 255.462 317.274 256.777C314.987 259.421 311.847 261.151 308.416 261.658C304.213 262.034 299.354 259.547 296.769 256.585C294.184 253.624 293.155 248.281 292.283 244.093C290.635 234.947 296.047 225.896 296.047 225.896L288.203 225.623Z" fill="#8E5B24"/>
<path d="M292.236 228.126C294.447 228.118 296.233 226.498 296.225 224.508C296.218 222.518 294.42 220.912 292.209 220.92C289.998 220.929 288.211 222.549 288.219 224.539C288.226 226.528 290.025 228.135 292.236 228.126Z" fill="#DE9885"/>
<rect x="94.7715" y="250.302" width="2.87823" height="52.3838" fill="#101E27"/>
<rect x="99.377" y="250.302" width="2.87823" height="52.3838" fill="#224472"/>
<rect x="103.982" y="250.302" width="2.87823" height="52.3838" fill="#4C84B7"/>
<rect x="113.191" y="250.302" width="2.87823" height="52.3838" fill="#0F2034"/>
<rect x="117.797" y="250.302" width="2.87823" height="52.3838" fill="#E9B440"/>
<rect x="123.555" y="250.302" width="2.87823" height="52.3838" fill="#FEFCFF"/>
<path d="M230.336 297.506C221.701 298.082 221.989 300.48 220.838 302.111H242.425C242.425 302.111 238.971 296.93 230.336 297.506Z" fill="#141915"/>
<rect x="164.424" y="202.664" width="6.90775" height="84.0443" rx="3.45387" transform="rotate(-10.7762 164.424 202.664)" fill="#97A9C1"/>
</g>
<defs>
<clipPath id="clip0_7720_958">
<rect width="360" height="372" rx="16" fill="white"/>
</clipPath>
</defs>
</svg>
