<svg width="360" height="372" viewBox="0 0 360 372" fill="none" xmlns="http://www.w3.org/2000/svg">
<g clip-path="url(#clip0_7720_1007)">
<rect width="360" height="381" rx="16" fill="#D1E7C8"/>
<ellipse cx="29.72" cy="29.7195" rx="29.72" ry="29.7195" transform="matrix(-1 0 0 1 79.4395 231.001)" fill="#F6E6CE"/>
<path d="M46.7391 258.41L46.7991 258.5C49.1993 262.417 53.876 264.307 58.3237 263.157C62.7713 262.008 65.9469 258.089 66.1491 253.5C66.1491 253.36 66.1491 253.22 66.1491 253.09C66.1491 252.96 66.1491 253.09 66.1491 253.09C66.1288 252.847 66.1288 252.603 66.1491 252.36V252.36C66.1491 252.29 66.1491 252.22 66.1491 252.15C65.859 249.035 64.1849 246.216 61.5891 244.47C59.9863 243.378 58.1075 242.76 56.1691 242.69C52.3367 242.532 48.7262 244.488 46.7656 247.785C44.8051 251.082 44.8103 255.188 46.7791 258.48L46.7391 258.41Z" fill="#DE9885"/>
<path d="M47.4895 259.68C50.4095 264.68 51.7095 268.32 46.8495 271.84L61.3295 272.51C58.7595 271.51 57.5095 266.12 62.0795 264.63C65.5195 263.5 65.7395 263.45 65.7995 260.07C65.7995 258.18 67.2295 258.48 67.2695 257.38C67.3095 256.28 66.2695 255.24 66.1595 253.07V253.07C66.1392 252.827 66.1392 252.583 66.1595 252.34V252.34L53.1595 256.44L46.7695 258.44L46.8295 258.53C46.9995 258.9 47.2695 259.29 47.4895 259.68Z" fill="#DE9885"/>
<path d="M46.7395 258.41L46.7995 258.5C47.0395 258.9 47.2695 259.29 47.4895 259.68V259.68H47.6595C50.2895 260.91 54.5495 259.78 53.2295 255.43L57.6595 253.29C58.0087 253.709 58.5978 253.837 59.0892 253.6C59.5806 253.364 59.8486 252.824 59.7395 252.29C61.3595 253.22 62.1795 252.29 62.0495 251.29C63.1957 252.143 64.6653 252.433 66.0495 252.08C67.6928 251.662 68.6896 249.995 68.2795 248.35C67.6195 245.01 64.2795 246.28 61.4895 244.35C59.8867 243.258 58.0078 242.641 56.0695 242.57C52.2371 242.412 48.6266 244.368 46.666 247.665C44.7055 250.962 44.7106 255.068 46.6795 258.36L46.7395 258.41Z" fill="#0E2134"/>
<circle cx="55.6406" cy="254.79" r="2.5" fill="#DE9885"/>
<path d="M48.8491 246.74C40.1891 236.83 26.1691 242.32 24.3691 257L35.6391 261.11C39.2591 242.61 48.8491 247.72 48.8491 247.72V246.74Z" fill="#0E2134"/>
<path d="M50 290.44C59.3149 290.464 68.1124 286.159 73.81 278.79C71.933 277.104 69.7821 275.752 67.45 274.79C65.4574 273.917 63.4136 273.165 61.33 272.54L46.85 271.87C45.27 272.95 42.49 272.96 39.44 273.77C36.4906 274.479 33.843 276.107 31.88 278.42L29 281.91C34.6152 287.39 42.1539 290.452 50 290.44Z" fill="#606E30"/>
<path d="M39.4395 273.74C47.1709 281.12 59.2012 281.55 67.4395 274.74C65.4468 273.867 63.4031 273.115 61.3195 272.49L46.8395 271.82C45.2695 272.92 42.4895 272.93 39.4395 273.74Z" fill="#DE9885"/>
<circle cx="54.2295" cy="274.71" r="0.79" fill="white"/>
<circle cx="55.7998" cy="274.47" r="0.79" fill="white"/>
<circle cx="57.3701" cy="274.26" r="0.79" fill="white"/>
<circle cx="58.8505" cy="273.8" r="0.79" fill="white"/>
<circle cx="60.2998" cy="273.3" r="0.79" fill="white"/>
<circle cx="61.5908" cy="272.51" r="0.79" fill="white"/>
<circle cx="52.6591" cy="274.47" r="0.79" fill="white"/>
<circle cx="51.0908" cy="274.26" r="0.79" fill="white"/>
<circle cx="49.6201" cy="273.8" r="0.79" fill="white"/>
<circle cx="48.1709" cy="273.3" r="0.79" fill="white"/>
<circle cx="46.8798" cy="272.51" r="0.79" fill="white"/>
<path d="M121 291C104.431 291 91 277.569 91 261C91 244.431 104.431 231 121 231C137.569 231 151 244.431 151 261C151 277.569 137.569 291 121 291Z" fill="#F6E6CE"/>
<path d="M132.049 253.356C132.137 254.61 130.388 254.038 130.674 256.183C131.015 260.011 130.828 260.583 127.022 262.2C123.216 263.817 126.076 271.297 126.076 271.297L122.061 274.597L108.861 271.495C110.852 267.447 112.612 264.367 110.731 260.077C110.234 258.991 109.614 257.965 108.883 257.019L116.011 253.906L116.407 253.741L121.038 251.717L121.357 251.574L124.217 250.331L130.201 247.68C130.201 247.68 130.201 247.68 130.201 247.746C130.221 247.993 130.254 248.239 130.3 248.483C130.696 250.98 131.983 252.223 132.049 253.356Z" fill="#DE9885"/>
<path d="M119.202 261.727C115.208 261.972 111.356 260.21 108.928 257.03C107.53 255.186 106.707 252.971 106.563 250.661C106.355 247.508 107.409 244.402 109.493 242.027C111.577 239.652 114.52 238.203 117.673 238H118.245C124.059 237.876 129.113 241.967 130.202 247.68C130.202 247.68 130.202 247.68 130.202 247.746C130.222 247.993 130.255 248.239 130.301 248.483C130.301 248.659 130.301 248.835 130.356 249.022C130.573 252.189 129.517 255.311 127.423 257.696C125.329 260.081 122.37 261.532 119.202 261.727Z" fill="#DE9885"/>
<path d="M121.401 251.629L121.071 251.684L115.835 252.619C115.933 253.032 116.003 253.451 116.044 253.873C116.42 256.611 114.66 259.188 111.974 259.835C111.585 259.949 111.187 260.033 110.786 260.088C110.288 259.002 109.668 257.976 108.938 257.03C107.539 255.186 106.717 252.971 106.573 250.661C106.365 247.508 107.419 244.402 109.503 242.027C111.587 239.652 114.53 238.203 117.683 238H118.255C118.255 238.132 118.618 239.892 115.736 241.432C115.736 241.432 121.665 241.102 123.161 245.491C123.161 245.491 123.843 248.362 124.261 250.364C124.338 250.705 124.404 251.013 124.448 251.277C124.756 252.894 122.237 254.28 121.401 251.629Z" fill="#010101"/>
<path d="M118.552 254.665C120.126 254.665 121.401 253.389 121.401 251.816C121.401 250.243 120.126 248.967 118.552 248.967C116.979 248.967 115.703 250.243 115.703 251.816C115.703 253.389 116.979 254.665 118.552 254.665Z" fill="#DE9885"/>
<path d="M120.685 267.568L122.104 273.53L123.765 267.557H126.372L127.23 273.53L114.25 274.091L108.904 270.615L120.685 267.568Z" fill="#E0EEFA"/>
<path d="M108.906 269.746C116.639 275.36 125.307 274.487 130.334 270.911L137.407 272.076C140.97 272.649 143.94 275.15 145.307 278.588C139.855 286.109 130.999 291 121.001 291C109.676 291 99.8174 284.725 94.7109 275.463C96.3875 273.683 98.5003 272.423 100.821 271.831L108.906 269.746Z" fill="#915B24"/>
<path d="M120.686 267.568L108.905 264.4L107.178 270.23C107.178 270.23 115.175 273.31 118.915 273.53C122.655 273.75 120.686 267.568 120.686 267.568Z" fill="white"/>
<path d="M123.766 267.557L124.701 271.165C124.829 271.708 125.175 272.174 125.658 272.453C126.141 272.732 126.718 272.799 127.253 272.639C128.424 272.31 129.497 271.698 130.377 270.857L128.738 265.94L123.766 267.557Z" fill="white"/>
<circle cx="30" cy="30" r="30" transform="matrix(-1 0 0 1 222 231)" fill="#F6E6CE"/>
<path d="M200.79 255.5C201.013 260.381 198.007 264.829 193.395 266.443C188.784 268.057 183.66 266.454 180.79 262.5V262.45C178.975 259.919 178.312 256.74 178.963 253.694C179.614 250.648 181.519 248.018 184.21 246.45V246.45C186.782 244.954 189.848 244.558 192.716 245.35C195.583 246.142 198.011 248.056 199.45 250.66C200.074 251.784 200.494 253.01 200.69 254.28V254.28C200.69 254.54 200.69 254.79 200.78 255.02C200.795 255.18 200.798 255.34 200.79 255.5Z" fill="#955747"/>
<path d="M202.33 259.52C202.38 260.68 200.79 260.52 201.02 262.52C201.26 266.08 201.02 266.22 197.49 267.65C193.96 269.08 194.86 274.1 196.44 276.08L180.76 275.94C183.01 271.6 184.08 269.6 183.37 267.12C182.775 265.454 181.907 263.9 180.8 262.52V262.47L187.39 259.75L190.78 258.36L192.68 257.58L200.68 254.28V254.28V254.28C200.68 254.54 200.68 254.79 200.77 255.02C201.13 257.34 202.28 258.47 202.33 259.52Z" fill="#955747"/>
<path d="M200.31 249.72C200.04 250.05 199.7 250.33 199.42 250.64C199.312 250.754 199.215 250.878 199.13 251.01C198.76 251.58 198.68 252.33 198.2 252.82C197.484 253.327 196.594 253.526 195.73 253.37C194.86 253.37 193.82 253.54 193.47 254.37C193.248 254.991 193.081 255.63 192.97 256.28C192.86 256.72 192.76 257.16 192.64 257.6C192.57 257.86 192.49 258.12 192.42 258.38H187.23C187.23 258.84 187.31 259.31 187.35 259.77C187.35 260.02 187.41 260.27 187.42 260.52C187.475 261.095 187.475 261.675 187.42 262.25C187.23 263.729 186.469 265.075 185.3 266L185.2 266.07C184.643 266.493 184.026 266.83 183.37 267.07C182.775 265.404 181.907 263.849 180.8 262.47V262.42C178.985 259.889 178.322 256.71 178.973 253.664C179.624 250.618 181.529 247.988 184.22 246.42V246.42C185.93 245.42 186.52 243.3 188.16 242.5C189.62 241.78 191.33 242.5 192.95 242.5C194.25 242.5 195.56 241.98 196.82 242.28C197.753 242.567 198.554 243.177 199.08 244C199.628 244.796 200.078 245.656 200.42 246.56C200.594 246.934 200.725 247.326 200.81 247.73C200.918 248.434 200.738 249.151 200.31 249.72Z" fill="#0E2134"/>
<circle cx="189.82" cy="257.83" r="2.64" fill="#955747"/>
<path d="M192.001 291C197.266 291.014 202.442 289.634 207.001 287C204.471 283.29 198.371 280.38 195.691 274.74L182.441 272.6L180.761 275.92C179.941 277.75 177.441 282.25 176.471 286.67C181.152 289.511 186.525 291.009 192.001 291Z" fill="#D2232D"/>
<path d="M192.47 258.85L193.83 261.5C194.095 261.988 194.076 262.581 193.779 263.05C193.482 263.519 192.955 263.791 192.4 263.76C191.846 263.729 191.352 263.4 191.11 262.9C190.88 262.462 190.88 261.939 191.11 261.5L192.47 258.85Z" fill="white"/>
<path d="M185.43 280.52V280.52C183.696 280.138 181.882 280.479 180.404 281.464C178.927 282.449 177.915 283.993 177.6 285.74L177.33 287.17C181.089 289.282 185.262 290.552 189.56 290.89L190.19 289.16C190.84 287.384 190.689 285.413 189.777 283.757C188.864 282.1 187.279 280.92 185.43 280.52V280.52Z" fill="#955747"/>
<path d="M255.508 303.162V314.721L246.248 344.227H262.57L274.805 303.162H255.508Z" fill="#DE9885"/>
<path d="M306.892 359.608C306.823 367.731 300.42 376.443 290.202 376.443H255.566L239.98 424.87L205.523 414.311L230.181 362.524C234.371 353.726 243.246 348.126 252.984 348.126H306.892V359.608Z" fill="#435051"/>
<path d="M324.712 359.608C324.644 367.731 318.24 376.443 308.023 376.443H273.387L257.8 424.87L223.344 414.311L248.002 362.524C252.191 353.726 261.066 348.126 270.805 348.126H324.712V359.608Z" fill="#51605F"/>
<path d="M328.891 314.721H325.582L324.709 359.608C318.271 347.433 305.575 348.126 305.575 348.126H250.761L263.637 321.501C267.117 314.541 260.029 309.146 260.525 303.059L248.324 303.23L256.506 277.477C259.029 270.749 263.928 268.132 269.562 267.363C270.922 267.183 272.315 267.106 273.735 267.106H307.31C307.456 267.106 307.601 267.106 307.746 267.106C322.042 267.371 327.334 280.701 327.847 290.174C328.369 299.742 328.891 314.712 328.891 314.712V314.721Z" fill="#3E6532"/>
<path d="M307.747 267.115C304.934 274.964 297.427 280.581 288.612 280.581C279.797 280.581 272.444 275.083 269.562 267.363C270.922 267.183 272.316 267.106 273.735 267.106H307.311C307.456 267.106 307.601 267.106 307.747 267.106V267.115Z" fill="#DE9885"/>
<path d="M295.378 244.585C295.361 244.645 295.352 244.697 295.335 244.757C293.762 250.323 289.538 255.025 283.63 256.949C283.519 256.983 283.4 257.026 283.288 257.051C273.977 259.89 264.077 254.76 261.05 245.466C260.981 245.261 260.922 245.047 260.862 244.842C260.734 244.415 260.631 243.978 260.537 243.551C260.537 243.534 260.537 243.525 260.528 243.508C260.391 242.841 260.306 242.166 260.246 241.499H260.238L260.195 240.883C259.759 232.975 264.649 225.451 272.532 222.886C280.954 220.141 289.94 223.98 293.933 231.564C294.395 232.445 294.797 233.385 295.113 234.368C296.233 237.806 296.259 241.336 295.378 244.585V244.585Z" fill="#DE9885"/>
<path d="M277.464 270.013C277.464 270.013 279.243 262.13 272.967 261.976C266.76 261.831 266.358 261.737 264.691 256.197C263.895 253.042 261.595 254.23 261.014 252.435C260.433 250.639 261.852 247.903 260.535 243.5L295.376 244.586C293.282 253.153 294.863 261.421 304.713 270.013H277.464V270.013Z" fill="#DE9885"/>
<path d="M311.219 260.941H283.286V242.747L274.779 242.046V234.65C268.435 242.858 260.236 241.499 260.236 241.499L260.193 240.883C259.757 232.975 264.647 225.451 272.53 222.886C280.952 220.141 289.938 223.98 293.931 231.564L311.219 260.941V260.941Z" fill="#E75A2D"/>
<path d="M279.004 247.031C281.37 247.031 283.288 245.113 283.288 242.748C283.288 240.382 281.37 238.464 279.004 238.464C276.639 238.464 274.721 240.382 274.721 242.748C274.721 245.113 276.639 247.031 279.004 247.031Z" fill="#DE9885"/>
<path d="M298.566 343.517H238.597C237.327 343.517 236.297 344.547 236.297 345.817V345.826C236.297 347.096 237.327 348.126 238.597 348.126H298.566C299.837 348.126 300.866 347.096 300.866 345.826V345.817C300.866 344.547 299.837 343.517 298.566 343.517Z" fill="#1D2024"/>
<path d="M199.463 309.813H250.267L260.527 348.126H209.731L199.463 309.813Z" fill="#394450"/>
<path d="M306.892 315.243V321.51L281.515 336.763C280.472 337.387 279.207 337.481 278.087 337.019L276.069 336.181C274.829 335.668 273.402 335.942 272.444 336.874L265.621 343.517H282.866L318.597 333.736C324.684 332.069 328.899 326.546 328.899 320.236V314.721L306.9 315.243H306.892Z" fill="#DE9885"/>
<path d="M229.994 333.856C232.695 333.856 234.885 331.666 234.885 328.965C234.885 326.264 232.695 324.075 229.994 324.075C227.293 324.075 225.104 326.264 225.104 328.965C225.104 331.666 227.293 333.856 229.994 333.856Z" fill="#74899F"/>
</g>
<defs>
<clipPath id="clip0_7720_1007">
<rect width="360" height="372" rx="16" fill="white"/>
</clipPath>
</defs>
</svg>
