<svg width="360" height="372" viewBox="0 0 360 372" fill="none" xmlns="http://www.w3.org/2000/svg">
<g clip-path="url(#clip0_7720_1102)">
<rect width="360" height="381" rx="16" fill="#E4ECF4"/>
<rect x="127.482" y="186" width="142.036" height="151.505" fill="#FBF8F0"/>
<path d="M144.316 328.036H245.846" stroke="#6A7B8E"/>
<rect x="154.838" y="314.359" width="10.5212" height="12.6254" fill="#B8CBDC"/>
<rect x="184.297" y="283.847" width="10.5212" height="43.1369" fill="#B8CBDC"/>
<rect x="213.756" y="270.17" width="10.5212" height="56.8145" fill="#B8CBDC"/>
<rect x="169.566" y="290.16" width="10.5212" height="36.8242" fill="#323B45"/>
<rect x="199.027" y="263.857" width="10.5212" height="63.1272" fill="#323B45"/>
<rect x="228.486" y="243.867" width="10.5212" height="83.1175" fill="#323B45"/>
<rect x="196.922" y="209.147" width="42.0848" height="2.10424" fill="#4E5D6D"/>
<rect x="196.922" y="214.407" width="38.9285" height="2.10424" fill="#4E5D6D"/>
<rect x="196.922" y="219.668" width="42.0848" height="2.10424" fill="#4E5D6D"/>
<rect x="196.922" y="224.928" width="29.4594" height="2.10424" fill="#4E5D6D"/>
<path d="M177.536 232.926C174.052 234.6 170.075 234.936 166.36 233.872C162.644 232.809 159.448 230.418 157.377 227.154C155.307 223.891 154.506 219.981 155.127 216.166C155.747 212.351 157.746 208.897 160.744 206.458L170.704 218.7L177.536 232.926Z" fill="#323B45"/>
<path d="M160.542 206.626C163.469 204.163 167.19 202.846 171.014 202.922L170.704 218.7L160.542 206.626Z" fill="#D6E2ED"/>
<path d="M170.912 202.92C174.272 202.965 177.53 204.08 180.212 206.105C182.894 208.13 184.859 210.957 185.823 214.177L170.703 218.7L170.912 202.92Z" fill="#92ABC0"/>
<path d="M185.796 214.082C186.908 217.715 186.672 221.627 185.132 225.1C183.591 228.572 180.85 231.373 177.41 232.987L170.705 218.7L185.796 214.082Z" fill="#4E5D6D"/>
<path d="M136.622 279.709L153.126 264.993L154.979 263.15C155.994 261.871 156.751 260.373 157.291 258.829C157.595 257.967 157.879 256.989 158.664 256.518C159.33 256.117 160.167 256.207 160.938 256.093C161.709 255.979 162.452 255.64 163.046 255.137L168.279 250.023C168.642 249.665 169.221 249.641 169.608 249.968C170.034 250.318 170.092 250.944 169.743 251.37L164.069 258.295C164.562 258.256 165.16 258.609 165.308 259.078C165.457 259.546 165.447 260.063 165.616 260.526C165.843 261.145 166.379 261.636 166.483 262.288C166.578 262.865 166.307 263.458 166.408 264.038C166.476 264.435 166.723 264.777 166.833 265.162C167.105 266.172 166.411 267.167 165.7 267.933L162.867 270.405C161.636 271.5 159.715 271.283 158.181 273.057L142.111 293.3" fill="#D88B7B"/>
<path d="M49.7354 279.647L41.1676 301.327C38.5708 307.902 39.5295 315.353 43.7115 321.052L53.9853 335.062L74.367 294.767L49.7354 279.655V279.647Z" fill="#1A3C72"/>
<path d="M59.7758 231.01L58.2434 223.786C57.8659 222.004 57.481 220.2 56.6808 218.562C55.8807 216.924 54.6124 215.445 52.9215 214.765C51.2305 214.086 49.0943 214.358 47.8789 215.716C46.6938 217.037 46.4749 219.166 44.9802 220.132C44.1499 220.668 43.093 220.714 42.172 221.061C40.6019 221.657 39.4469 223.22 39.3412 224.896C39.2657 226.073 39.6659 227.274 39.4017 228.428C39.062 229.893 37.7334 230.935 37.2201 232.346C36.4124 234.603 37.9447 237.087 39.9149 238.461C43.0099 240.612 47.3127 240.891 50.6568 239.148C51.9779 238.461 53.148 237.487 54.5143 236.898C55.8807 236.309 57.5942 236.166 58.7643 237.094" fill="#0D2135"/>
<path d="M75.0643 256.359C72.1354 256.986 69.2216 256.759 66.5871 255.838C64.4583 255.106 62.5107 253.921 60.8726 252.373C60.7896 252.29 60.7066 252.2 60.616 252.117C58.5023 250.026 56.9548 247.323 56.2906 244.198C54.4638 235.653 59.9064 227.251 68.4516 225.424C75.2455 223.975 81.9488 227.115 85.3306 232.762C85.9119 233.72 86.3875 234.762 86.7498 235.857C86.8404 236.242 86.9461 236.604 87.0744 236.944C87.1273 237.155 87.1801 237.366 87.2254 237.578C89.0522 246.123 83.6095 254.532 75.0643 256.359V256.359Z" fill="#D88B7B"/>
<path d="M89.1948 247.391C90.38 252.358 90.1158 252.607 85.4356 255.468C80.7101 258.367 85.9414 267.614 85.9414 267.614H65.9446C69.2283 263.206 68.6395 260.707 65.2124 256.834C64.065 255.544 62.6081 254.094 60.8719 252.373C60.7888 252.29 60.7058 252.2 60.6152 252.117L69.9606 246.304L86.7491 235.856C86.8396 236.241 86.9454 236.604 87.0737 236.944C88.1305 240.084 90.0252 241.42 90.3423 242.892C90.6895 244.515 88.4022 244.628 89.1948 247.391V247.391Z" fill="#D88B7B"/>
<path d="M85.3267 232.761C84.9266 234.06 84.1416 235.185 82.9112 235.72C81.5977 236.287 79.8614 236.173 79.0311 237.336C78.3668 238.264 78.6385 239.57 78.1705 240.605C77.7402 241.586 76.7211 242.175 75.7096 242.514C74.6981 242.862 73.6261 243.028 72.6674 243.496C71.8975 243.873 70.501 245.232 69.9574 246.304C69.814 246.576 69.7309 246.825 69.7234 247.036C72.2673 249.648 71.1275 252.381 68.961 254.049C68.2061 254.638 67.3607 255.264 66.5832 255.838C66.085 256.2 65.6093 256.548 65.2092 256.834C64.0618 255.544 62.6049 254.094 60.8687 252.373C60.7857 252.29 60.7027 252.199 60.6121 252.116C58.4984 250.025 56.9509 247.323 56.2866 244.198C54.4598 235.653 59.9025 227.251 68.4477 225.424C75.2416 223.975 81.9449 227.115 85.3267 232.761V232.761Z" fill="#0D2135"/>
<path d="M72.2988 247.874C74.7377 247.874 76.7148 245.897 76.7148 243.458C76.7148 241.019 74.7377 239.042 72.2988 239.042C69.8599 239.042 67.8828 241.019 67.8828 243.458C67.8828 245.897 69.8599 247.874 72.2988 247.874Z" fill="#D88B7B"/>
<path d="M144.57 302.708L136.266 308.012C123.056 312.541 121.871 310.269 115.884 308.012L101.362 295.22C102.743 308.558 95.9493 305.501 98.9688 326.162C101.988 346.823 105.008 365.37 101.422 394.237H85.1999C83.0334 394.237 80.9123 393.656 79.0477 392.561L75.53 390.493C73.3257 389.194 70.6006 389.209 68.4039 390.515L67.566 391.014C64.0407 393.12 60.0097 394.237 55.8956 394.237H47.4485C43.108 338.754 55.9409 317.24 51.789 302.708C50.3019 297.492 49.5169 291.377 49.1168 285.678C48.4073 275.397 56.5599 266.663 66.8715 266.663H88.929C92.3713 266.663 95.7455 267.599 98.6895 269.38L121.418 287.06L140.041 275.175L144.57 302.708Z" fill="#245DA4"/>
<path d="M258.786 273.947L258.469 267.123C258.378 265.251 259.315 263.462 260.915 262.488C263.844 260.714 264.953 258.827 265.225 256.004C265.338 254.857 265.414 254.094 265.459 253.596C265.505 253.098 264.991 252.766 264.561 253C263.595 253.528 263.059 254.562 263.059 254.562L263.761 251.875C263.957 251.128 263.519 250.358 262.779 250.146C262.017 249.927 261.224 250.365 261.013 251.128L260.779 251.935C260.062 250.795 257.926 251.558 257.79 252.562C257.495 251.346 255.11 251.686 254.982 252.735C254.189 251.414 252.347 251.814 251.909 253.347L250.535 258.488C249.599 261.243 251.358 261.59 251.237 265.161C251.117 268.731 251.003 273.713 251.003 273.713" fill="#553129"/>
<path d="M251.23 267.871L248.256 310.71H265.467L267.06 267.871H251.23Z" fill="#4D5D6E"/>
<path d="M293.872 361.022L284.315 402.812L300.877 442.677L278.774 453.887L260.408 406.323L265.692 361.022H293.872Z" fill="#211F1D"/>
<path d="M291.11 361.022L274.072 395.015L269.724 451.623H245.062L248.505 397.611C248.89 391.535 249.977 385.518 251.743 379.691L257.39 361.015H291.11V361.022Z" fill="#47423A"/>
<path d="M297.954 245.194C297.063 248.266 295.327 250.855 293.07 252.788C293.055 252.795 293.047 252.81 293.032 252.818C290.685 254.826 287.778 256.117 284.683 256.502H284.676C282.622 256.751 280.479 256.6 278.357 255.988C269.971 253.558 265.139 244.786 267.57 236.392C267.631 236.18 267.699 235.969 267.774 235.758C267.887 235.411 268.008 235.086 268.144 234.761C268.144 234.746 268.151 234.724 268.159 234.708C271.209 227.371 279.354 223.34 287.159 225.605C287.763 225.778 288.344 225.982 288.903 226.224C296.21 229.288 300.211 237.411 297.954 245.194V245.194Z" fill="#553129"/>
<path d="M293.068 252.788C293.068 252.788 293.046 252.81 293.03 252.818C290.532 254.969 288.916 256.864 287.988 258.585C287.49 259.521 287.188 260.405 287.074 261.258C286.727 263.605 287.693 265.704 289.347 267.863H266.934C266.934 267.863 271.449 258.329 266.934 255.105C262.473 251.912 263.364 250.908 264.896 246.039C265.885 243.337 263.613 243.065 264.073 241.465C264.496 240.015 266.489 238.823 267.772 235.758C267.908 235.441 268.029 235.116 268.142 234.761C268.142 234.746 268.15 234.724 268.157 234.708L269.652 235.796L274.143 239.049L279.08 242.635L285.912 247.594L286.078 247.715L293.068 252.788V252.788Z" fill="#553129"/>
<path d="M268.969 237.441L279.703 240.801" stroke="#0E2135" stroke-miterlimit="10"/>
<path d="M270.366 234.082L267.58 240.801" stroke="#0E2135" stroke-miterlimit="10"/>
<path d="M297.951 245.194C297.06 248.266 295.324 250.856 293.067 252.788C293.051 252.796 293.044 252.811 293.029 252.818C290.53 254.97 288.915 256.864 287.986 258.585C286.544 258.14 285.442 257.393 284.68 256.502H284.672C283.095 254.675 282.921 252.26 284 250.697L286.076 247.715L286.68 246.855L279.26 242.197L277.584 241.201L288.9 226.224C296.207 229.289 300.208 237.411 297.951 245.194V245.194Z" fill="#0F1D2C"/>
<path d="M283.254 248.493C285.693 248.493 287.67 246.516 287.67 244.077C287.67 241.638 285.693 239.661 283.254 239.661C280.815 239.661 278.838 241.638 278.838 244.077C278.838 246.516 280.815 248.493 283.254 248.493Z" fill="#553129"/>
<path d="M301.888 313.511L300.039 343.117H251.161C236.441 314.809 258.709 293.106 266.93 267.871L287.07 261.266C286.723 263.613 287.689 265.712 289.342 267.871L301.888 313.511V313.511Z" fill="#F4FBFE"/>
<path d="M289.342 267.871L276.705 273.479C253.591 283.874 247.061 328.238 248.012 353.957C248.156 357.897 251.364 361.022 255.312 361.022H291.901C300.499 361.022 307.466 354.055 307.466 345.457V311.97C307.466 282.53 297.653 277.646 289.349 267.863L289.342 267.871Z" fill="#4D5D6E"/>
<path d="M264.263 337.83L263.298 338.922C262.27 340.236 260.811 342.36 259.164 342.087C256.166 341.588 254.744 342.679 252.921 344.422C252.181 345.133 251.694 345.596 251.37 345.907C251.047 346.219 251.211 346.739 251.635 346.829C252.595 347.033 253.552 346.644 253.552 346.644L251.525 348.053C250.96 348.441 250.813 349.213 251.189 349.79C251.57 350.376 252.361 350.537 252.947 350.156L253.567 349.747C253.39 350.932 255.267 351.651 255.944 351.054C255.434 352.044 257.242 353.194 257.938 352.564C257.707 353.906 259.179 354.709 260.366 353.929L264.263 351.264C266.488 349.955 265.508 348.699 267.654 346.365C269.8 344.031 267.836 346.232 269.95 343.869" fill="#553129"/>
<path d="M263.654 265.139L251.236 265.154L251.24 267.856L263.657 267.841L263.654 265.139Z" fill="#F4FBFE"/>
</g>
<defs>
<clipPath id="clip0_7720_1102">
<rect width="360" height="372" rx="16" fill="white"/>
</clipPath>
</defs>
</svg>
