<svg width="360" height="372" viewBox="0 0 360 372" fill="none" xmlns="http://www.w3.org/2000/svg">
<g clip-path="url(#clip0_7720_1038)">
<rect width="360" height="381" rx="16" fill="#E7F4E1"/>
<path d="M174.227 351.051H24V411.112H174.227V351.051Z" fill="#B4C6D9"/>
<path d="M135.33 268.531L137.531 267.87C139.424 267.299 141.039 266.068 142.09 264.393L143.818 261.643C144.133 261.14 144.569 260.727 145.08 260.442L152.035 256.528C152.336 256.355 152.719 256.513 152.817 256.851C152.952 257.332 153.034 257.813 152.509 258.346C151.202 259.66 148.377 261.11 148.377 261.11C148.377 261.11 154.912 258.631 157.489 257.61C160.065 256.596 160.921 258.323 160.921 258.323C162.649 257.933 162.889 259.668 162.003 260.464C162.716 261.636 159.749 264.821 159.749 264.821L156.016 268.426C154.92 269.485 153.568 270.244 152.088 270.619L142.826 272.993L137.937 275.524" fill="#EFB7A8"/>
<path d="M58.7143 229.668C59.0223 232.83 60.2467 235.677 62.102 237.983C63.0334 239.147 64.13 240.169 65.3469 241.01C68.3138 243.106 72.0169 244.18 75.9153 243.797C84.5609 242.948 90.8854 235.249 90.0442 226.603C90.0216 226.408 89.9991 226.22 89.9766 226.025C89.924 225.627 89.8564 225.236 89.7662 224.846C89.3306 222.765 88.4818 220.85 87.3176 219.182C84.1778 214.638 78.7321 211.896 72.8432 212.474C71.2433 212.632 69.726 213.023 68.3138 213.616C68.2688 213.624 68.2312 213.646 68.1862 213.669C62.0419 216.283 58.0308 222.66 58.7143 229.668V229.668Z" fill="#EFB7A8"/>
<path d="M85.4024 256.145C85.4024 256.145 81.2636 246.418 86.2662 244.09C87.3102 243.602 88.1515 243.211 88.8125 242.843L88.8651 242.813C91.2988 241.461 91.3739 240.477 90.8932 236.526C90.8781 236.443 90.8706 236.368 90.8631 236.293C90.7805 235.602 90.8706 235.106 91.0434 234.716C91.2161 234.325 91.4715 234.04 91.7269 233.784C92.1701 233.326 92.6058 232.95 92.5306 232.199C92.3804 230.727 90.6828 229.202 89.9768 226.025C89.8866 225.657 89.819 225.266 89.7665 224.846L80.4223 229.285L78.5069 230.194L78.3642 230.261L71.912 233.326L71.4463 233.544L62.1022 237.983C62.9585 239.117 63.5368 240.259 63.8974 241.416C65.4147 246.283 63.0035 251.323 60.4121 256.078L85.4024 256.145V256.145Z" fill="#EFB7A8"/>
<path d="M58.7131 229.668C59.021 232.83 60.2454 235.677 62.1007 237.983C62.957 239.117 63.5353 240.259 63.8959 241.415C64.2264 241.318 64.6921 241.19 65.3456 241.01C65.9465 240.852 66.7051 240.649 67.6666 240.394C71.1594 239.478 72.0006 236.721 71.4448 233.544C71.3472 232.973 71.2044 232.387 71.0242 231.801C71.0242 231.793 71.0166 231.786 71.0166 231.778L78.0247 229.119L78.1599 229.42L78.5055 230.194L78.7533 230.734L80.7213 229.931L80.4208 229.285L76.4699 220.677C81.3072 221.503 85.5812 219.948 87.3163 219.182C87.8421 218.949 88.135 218.784 88.135 218.784C89.3669 218.25 90.3959 217.544 91.2072 216.478C91.6578 215.877 92.0334 215.201 92.1686 214.457C92.3038 213.721 92.1836 212.91 91.7405 212.309C91.1621 211.535 90.1405 211.205 89.1866 211.227C88.2251 211.25 87.3013 211.58 86.3924 211.903C87.1886 211.595 87.5191 210.544 87.2036 209.755C86.8881 208.966 86.0769 208.456 85.2356 208.313C84.4019 208.163 83.5381 208.328 82.7193 208.553C81.5851 208.876 80.4885 209.327 79.4519 209.898C80.3232 209.38 80.3908 207.922 79.5646 207.336C78.9486 206.886 78.0923 206.961 77.3487 207.141C74.2015 207.907 72.1434 210.98 69.5895 212.827C69.6346 212.64 69.6421 212.452 69.5895 212.264C69.4092 211.64 68.6205 211.355 67.9896 211.52C67.3586 211.693 66.8779 212.196 66.4723 212.707C65.7662 213.601 65.1954 214.6 64.7822 215.659C65.0076 215.246 64.6545 214.683 64.2038 214.532C63.7832 214.39 63.3175 214.63 63.002 214.945C62.2058 215.757 62.0856 216.996 61.5974 218.018C61.6875 217.702 61.297 217.477 60.974 217.537C60.6585 217.597 60.4256 217.875 60.2679 218.16C59.9449 218.746 59.8022 219.415 59.6745 220.068C59.344 221.781 59.021 223.749 58.8558 225.484L58.8708 225.469C58.6304 226.821 58.5703 228.233 58.7131 229.668V229.668Z" fill="#E7592F"/>
<path d="M74.6323 234.497C76.7107 234.497 78.3955 232.812 78.3955 230.734C78.3955 228.656 76.7107 226.971 74.6323 226.971C72.554 226.971 70.8691 228.656 70.8691 230.734C70.8691 232.812 72.554 234.497 74.6323 234.497Z" fill="#EFB7A8"/>
<path d="M78.9793 240.492L79.813 242.903L79.8731 243.09C80.5191 244.953 82.6448 245.832 84.4175 244.976L88.8116 242.843L88.8642 242.813C91.2979 241.461 91.373 240.477 90.8922 236.526C90.8772 236.443 90.8697 236.368 90.8622 236.293C90.7796 235.602 90.8697 235.106 91.0425 234.715L88.4436 235.189L85.8672 235.662C84.47 235.91 83.0805 235.181 82.5021 233.889L80.7219 229.931L78.7539 230.734L80.4365 235.587C81.3078 238.088 78.9793 240.492 78.9793 240.492V240.492Z" fill="#E7592F"/>
<path d="M69.7342 252.156H84.7569C88.2421 252.156 91.6297 253.283 94.4089 255.379L118.746 273.639L136.961 268.005L143.345 281.526L130.922 287.948C124.605 291.208 117.206 291.629 110.551 289.135C106.119 287.475 101.98 286.078 102.191 286.724C106.652 300.545 112.391 316.589 108.973 329.223H49.2582C45.127 315.327 47.7559 306.689 47.7559 306.689C43.0614 301.243 43.4369 295.166 43.6247 290.69C43.8125 286.213 45.127 266.879 45.127 266.879C46.6292 252.044 57.8812 252.164 62.3956 252.164H69.7266L69.7342 252.156Z" fill="#196672"/>
<path d="M66.916 329.216C70.7168 339.837 75.494 351.306 90.4115 351.306H109.152L100.357 403.901C113.118 414.544 128.088 409.444 128.088 409.444L138.386 348.58C140.099 338.447 132.295 329.216 122.019 329.216H66.916V329.216Z" fill="#255397"/>
<path d="M49.2637 329.216C53.0644 339.837 57.8416 351.306 72.7592 351.306H91.5L82.7042 403.901C95.7063 412.509 110.436 409.444 110.436 409.444L120.734 348.58C122.447 338.447 114.642 329.216 104.367 329.216H49.2637V329.216Z" fill="#255EA5"/>
<path d="M93.1872 329.216H136.595C138.661 329.216 140.336 327.541 140.336 325.475V294.423C140.336 292.357 138.661 290.682 136.595 290.682H93.1872C91.1213 290.682 89.4466 292.357 89.4466 294.423V325.475C89.4466 327.541 91.1213 329.216 93.1872 329.216Z" fill="white"/>
<path d="M80.071 329.216H125.552C126.461 329.216 127.197 328.481 127.197 327.574C127.197 326.668 126.461 325.933 125.552 325.933H80.071C79.1625 325.933 78.4261 326.668 78.4261 327.574C78.4261 328.481 79.1625 329.216 80.071 329.216Z" fill="white"/>
<path d="M114.893 314.328C117.311 314.328 119.272 312.367 119.272 309.949C119.272 307.53 117.311 305.57 114.893 305.57C112.474 305.57 110.514 307.53 110.514 309.949C110.514 312.367 112.474 314.328 114.893 314.328Z" fill="#A2DCEA"/>
<path d="M62.7631 319.098L65.4897 322.403C66.1732 323.312 66.5713 324.484 66.9169 325.573C67.2624 326.654 67.6154 327.766 68.2914 328.682C68.9674 329.599 70.0491 330.297 71.1833 330.215C71.7391 330.177 72.3325 329.959 72.8283 330.2C73.001 330.282 73.1513 330.417 73.3315 330.493C73.9775 330.755 74.6836 330.14 75.3746 330.252C75.5474 330.282 75.7126 330.357 75.8779 330.417C76.5013 330.635 77.1924 330.658 77.7783 330.365C78.4092 330.68 79.1003 330.996 79.7913 330.876C80.5049 330.748 81.3387 330.29 81.4964 329.208L79.7162 329.231C79.0852 327.308 78.2364 325.16 78.6871 323.192L80.0542 325.926H81.4964L81.1208 323.747C80.8955 322.275 79.6411 321.051 78.2214 320.585C76.9069 320.157 74.9615 319.12 72.941 316.657L70.6049 313.863L62.748 319.098H62.7631Z" fill="#EFB7A8"/>
<path d="M200.893 266.649C200.015 267.708 202.471 271.298 202.471 271.298L205.626 275.415C206.557 276.624 207.781 277.578 209.186 278.171L217.982 281.904L219.875 283.422L223.472 286.314L245.992 304.371L249.92 289.205L227.514 279.26L226.064 278.614L223.991 277.638C223.773 277.54 223.563 277.435 223.36 277.33C218.823 275.024 219.476 272.5 217.568 269.999L212.679 263.689C212.468 263.411 212.055 263.411 211.837 263.682C211.522 264.072 211.259 264.478 211.537 265.177C212.228 266.897 214.271 269.323 214.271 269.323C214.271 269.323 208.179 265.898 205.783 264.508C203.387 263.119 202.283 264.696 202.283 264.696C200.638 264.05 200.142 265.732 200.893 266.649V266.649Z" fill="#BF7461"/>
<path d="M238.128 352.984H209.615L190.732 401.26L156.412 389.497L189.695 337.271C193.503 331.292 199.798 327.341 206.843 326.507L263.885 319.747L238.128 352.984V352.984Z" fill="#1D2124"/>
<path d="M245.993 237.362C245.993 246.052 253.038 253.098 261.729 253.098C264.914 253.098 267.873 252.159 270.344 250.529C272.102 249.387 273.612 247.892 274.784 246.157C274.821 246.097 274.866 246.037 274.904 245.97C276.526 243.498 277.473 240.546 277.473 237.362C277.473 228.671 270.427 221.625 261.729 221.625C256.313 221.625 251.529 224.367 248.704 228.536C247.916 229.685 247.285 230.947 246.834 232.291C246.466 233.343 246.218 234.44 246.098 235.581C246.09 235.987 246.06 236.37 246.008 236.731C246.008 236.941 245.993 237.151 245.993 237.362V237.362Z" fill="#BF7461"/>
<path d="M244.061 243.175C244.061 244.835 246.307 244.467 246.112 247.322C245.991 252.399 246.367 252.429 251.452 254.397C258.242 257.026 251.295 272.237 251.295 272.237L259.489 274.115L273.626 266.318L273.941 266.183C268.007 258.919 268.541 255.817 271.605 250.95C272.484 249.545 273.581 247.998 274.783 246.157C274.828 246.097 274.873 246.03 274.91 245.969L265.213 242.469L246.104 235.581C246.097 235.987 246.067 236.37 246.014 236.731C245.631 239.998 244.069 241.688 244.069 243.175H244.061Z" fill="#BF7461"/>
<path d="M248.703 228.536C248.703 228.536 249.506 236.092 258.069 239.119L265.378 240.9C265.288 241.448 265.228 241.966 265.205 242.469C265.025 247.081 267.864 249.5 270.343 250.529C270.778 250.709 271.207 250.852 271.605 250.95C272.484 249.545 273.58 247.998 274.782 246.158C274.827 246.097 274.872 246.03 274.91 245.97C276.532 243.499 277.479 240.547 277.479 237.362C277.479 228.671 270.433 221.625 261.735 221.625C256.319 221.625 251.534 224.367 248.71 228.536H248.703Z" fill="#61382D"/>
<path d="M286.035 317.681V292.33C286.035 275.805 274.768 266.604 271.05 262.149C261.999 264.35 259.933 272.425 251.295 272.237L244.062 283.692C239.089 291.579 244.114 302.035 241.508 307.51C238.901 312.986 235.386 319.746 235.386 319.746L286.035 317.681V317.681Z" fill="#E19B32"/>
<path d="M212.006 301.787C211.803 301.614 209.527 301.208 208.048 300.96C207.447 300.863 206.943 301.404 207.086 301.99C207.146 302.237 207.312 302.448 207.537 302.56L212.742 305.122L212.006 301.787V301.787Z" fill="#BF7461"/>
<path d="M207.256 295.53L202.066 299.285C201.39 299.774 201.413 300.788 202.119 301.246C202.487 301.486 202.96 301.501 203.343 301.283L209.314 297.941" fill="#BF7461"/>
<path d="M262.068 302.019L219.96 299.991C218.12 300.006 216.324 299.413 214.86 298.294L209.88 294.516C209.023 293.862 207.912 293.644 206.867 293.915L195.706 296.822C194.917 297.024 194.541 297.933 194.955 298.639C195.195 299.045 195.646 299.278 196.111 299.24L206.965 298.361L210.871 303.454C212.133 305.099 214.063 306.083 216.129 306.136L220.178 306.241L248.323 313.016C254.309 314.458 260.303 310.65 261.535 304.611L262.061 302.027L262.068 302.019Z" fill="#BF7461"/>
<path d="M216.758 365.881H215.195C209.78 365.881 204.875 369.081 202.697 374.046L182.949 418.964L166.77 411.588" stroke="#4A3E58" stroke-width="4" stroke-miterlimit="10"/>
<path d="M216.761 415.103V350.798C216.761 343.325 222.822 337.263 230.296 337.263H246.543" stroke="#4A3E58" stroke-width="4" stroke-miterlimit="10"/>
<path d="M232.767 319.221V406.938H270.324L286.413 322.563L288.771 310.177H241.818C236.823 310.177 232.767 314.226 232.767 319.221V319.221Z" fill="#725F87"/>
<path d="M304.25 286.922L320.662 289.055" stroke="#0D2135" stroke-width="4" stroke-miterlimit="10"/>
<path d="M282.093 346.104L291.355 296.311C292.482 290.257 298.145 286.133 304.252 286.93" stroke="#4A3E58" stroke-width="4" stroke-miterlimit="10"/>
<path d="M232.767 319.221V322.563H286.413L288.771 310.177H241.818C236.823 310.177 232.767 314.226 232.767 319.221V319.221Z" fill="#4A3E58"/>
<path d="M280.698 426.385C304.854 426.385 324.504 406.736 324.504 382.579C324.504 358.423 304.854 338.773 280.698 338.773C256.541 338.773 236.891 358.423 236.891 382.579C236.891 406.736 256.541 426.385 280.698 426.385Z" fill="#DCD2E6"/>
<path d="M280.697 340.268C257.367 340.268 238.393 359.249 238.393 382.572C238.393 405.894 257.375 424.876 280.697 424.876C304.02 424.876 323.001 405.894 323.001 382.572C323.001 359.249 304.02 340.268 280.697 340.268ZM280.697 337.263C305.725 337.263 326.006 357.551 326.006 382.572C326.006 407.592 305.718 427.88 280.697 427.88C255.677 427.88 235.389 407.592 235.389 382.572C235.389 357.551 255.677 337.263 280.697 337.263Z" fill="#4A3E58"/>
<path d="M238.901 369.825L238.128 372.724L260.549 381.678C270.156 385.509 277.765 393.118 281.596 402.725L290.55 425.146L293.449 424.372L289.986 400.471C288.506 390.233 291.293 379.845 297.693 371.718L312.633 352.759L310.507 350.634L291.541 365.581C283.414 371.981 273.018 374.768 262.788 373.288L238.894 369.825H238.901Z" fill="#4A3E58"/>
<path d="M216.759 352.984H232.766" stroke="#4A3E58" stroke-width="4" stroke-miterlimit="10"/>
<path d="M246.833 232.292C247.442 233.283 248.403 234.545 249.793 235.582C249.793 235.582 248.756 233.366 248.704 228.536C247.915 229.685 247.284 230.947 246.833 232.292V232.292Z" fill="#61382D"/>
<path d="M261.733 243.739C259.655 243.739 257.97 242.054 257.97 239.976C257.97 237.897 259.655 236.213 261.733 236.213C263.811 236.213 265.496 237.897 265.496 239.976C265.496 242.054 263.811 243.739 261.733 243.739Z" fill="#BF7461"/>
<path d="M274.911 229.926C285.599 207.016 313.639 218.891 312.009 240.742C310.379 262.6 320.662 264.974 320.662 264.974C277.472 271.11 300.239 233.554 274.911 229.918V229.926Z" fill="#61382D"/>
<path d="M219.875 283.422L223.473 286.313L227.514 279.26L226.064 278.614L223.991 277.638C223.773 277.54 223.563 277.435 223.36 277.33L219.875 283.422Z" fill="#7F2118"/>
</g>
<defs>
<clipPath id="clip0_7720_1038">
<rect width="360" height="372" rx="16" fill="white"/>
</clipPath>
</defs>
</svg>
