<svg width="360" height="372" viewBox="0 0 360 372" fill="none" xmlns="http://www.w3.org/2000/svg">
<g clip-path="url(#clip0_7720_1162)">
<rect width="360" height="381" rx="16" fill="#FFDFD6"/>
<path d="M290.621 214.646C290.535 218.922 288.891 222.992 286.039 225.984C283.188 228.976 279.358 230.651 275.368 230.651C271.379 230.651 267.548 228.976 264.697 225.984C261.846 222.992 260.201 218.922 260.115 214.646H290.621Z" fill="#4684C4"/>
<path d="M21.6217 209.834H27.1288V226.167H19.1914V212.44C19.1914 211.749 19.4476 211.086 19.9034 210.597C20.3592 210.109 20.9771 209.834 21.6217 209.834V209.834Z" fill="white"/>
<path d="M36.9479 209.834H42.4546V226.167H34.5176V212.44C34.5176 211.749 34.7735 211.086 35.2292 210.597C35.685 210.109 36.3033 209.834 36.9479 209.834Z" fill="white"/>
<path d="M52.2682 209.834H57.7749V226.167H49.8379V212.44C49.8379 211.749 50.0938 211.086 50.5496 210.597C51.0053 210.109 51.6236 209.834 52.2682 209.834Z" fill="white"/>
<path d="M67.5873 209.835H73.0659V226.167H65.1289V212.44C65.1289 212.095 65.1926 211.754 65.3165 211.436C65.4404 211.118 65.6219 210.829 65.8505 210.587C66.0792 210.345 66.3505 210.153 66.6486 210.024C66.9467 209.895 67.2658 209.831 67.5873 209.835V209.835Z" fill="white"/>
<path d="M82.899 209.834H88.4058V226.167H80.4688V212.44C80.4688 211.749 80.7246 211.086 81.1804 210.597C81.6362 210.109 82.2545 209.834 82.899 209.834V209.834Z" fill="white"/>
<path d="M157.185 213.486H146.832V231.732H157.185V213.486Z" fill="#424435"/>
<path d="M157.185 218.713L153.533 222.628L157.185 226.544V227.809L153.526 231.732H150.499L146.832 227.809V226.544L150.477 222.628L146.832 218.713V217.455L150.534 213.486H153.491L157.185 217.455V218.713Z" fill="#B5A1CB"/>
<path d="M154.179 216.22H149.846V219.247H154.179V216.22Z" fill="white"/>
<path d="M171.227 213.486H160.873V231.732H171.227V213.486Z" fill="#424435"/>
<path d="M171.234 218.713L167.581 222.628L171.234 226.544V227.809L167.567 231.732H164.54L160.873 227.809V226.544L164.526 222.628L160.873 218.713V217.455L164.575 213.486H167.532L171.234 217.455V218.713Z" fill="#B5A1CB"/>
<path d="M168.221 216.22H163.887V219.247H168.221V216.22Z" fill="white"/>
<path d="M185.275 213.486H174.922V231.732H185.275V213.486Z" fill="#424435"/>
<path d="M185.275 218.713L181.623 222.628L185.275 226.544V227.809L181.609 231.732H178.589L174.922 227.809V226.544L178.568 222.628L174.922 218.713V217.455L178.617 213.486H181.581L185.275 217.455V218.713Z" fill="#B5A1CB"/>
<path d="M182.27 216.22H177.936V219.247H182.27V216.22Z" fill="white"/>
<path d="M163.886 195.234H153.533V213.479H163.886V195.234Z" fill="#424435"/>
<path d="M163.886 200.467L160.241 204.383L163.886 208.291V209.556L160.227 213.487H157.2L153.533 209.556V208.291L157.179 204.383L153.533 200.467V199.202L157.235 195.234H160.192L163.886 199.202V200.467Z" fill="#B5A1CB"/>
<path d="M160.881 197.975H156.547V201.002H160.881V197.975Z" fill="white"/>
<path d="M177.928 195.234H167.574V213.479H177.928V195.234Z" fill="#424435"/>
<path d="M177.935 200.467L174.282 204.383L177.935 208.291V209.556L174.268 213.487H171.241L167.574 209.556V208.291L171.227 204.383L167.574 200.467V199.202L171.276 195.234H174.233L177.935 199.202V200.467Z" fill="#B5A1CB"/>
<path d="M174.922 197.975H170.588V201.002H174.922V197.975Z" fill="white"/>
<path d="M247.276 222.041C247.276 224.417 246.395 226.697 244.828 228.377C243.26 230.057 241.134 231.002 238.917 231.002C236.7 231.002 234.574 230.057 233.007 228.377C231.439 226.697 230.559 224.417 230.559 222.041H247.276Z" fill="#0D2135"/>
<path d="M281.766 220.595C280.563 223.673 278.539 226.301 275.948 228.149C273.356 229.997 270.313 230.983 267.201 230.983C264.089 230.983 261.045 229.997 258.454 228.149C255.863 226.301 253.839 223.673 252.637 220.595H281.766Z" fill="#3C4545"/>
<path d="M247.276 214.774C247.276 217.151 246.395 219.43 244.828 221.11C243.26 222.791 241.134 223.735 238.917 223.735C236.7 223.735 234.574 222.791 233.007 221.11C231.439 219.43 230.559 217.151 230.559 214.774H247.276Z" fill="#0D2135"/>
<path d="M247.276 207.515C247.276 209.892 246.395 212.171 244.828 213.851C243.26 215.532 241.134 216.476 238.917 216.476C236.7 216.476 234.574 215.532 233.007 213.851C231.439 212.171 230.559 209.892 230.559 207.515H247.276Z" fill="#0D2135"/>
<path d="M247.276 200.264C247.276 202.64 246.395 204.92 244.828 206.6C243.26 208.281 241.134 209.225 238.917 209.225C236.7 209.225 234.574 208.281 233.007 206.6C231.439 204.92 230.559 202.64 230.559 200.264H247.276Z" fill="#0D2135"/>
<path d="M286.084 202.967C286.084 206.014 284.954 208.937 282.944 211.092C280.934 213.247 278.208 214.458 275.365 214.458C272.522 214.458 269.796 213.247 267.786 211.092C265.776 208.937 264.646 206.014 264.646 202.967H286.084Z" fill="#0D2135"/>
<path d="M138.383 287.116C138.383 292.56 142.661 295.226 142.661 295.226H148.736C149.852 294.463 150.809 293.461 151.546 292.282C151.911 291.891 152.354 291.8 153.429 291.792H153.906C154.193 291.794 154.477 291.736 154.743 291.619C155.008 291.503 155.249 291.331 155.452 291.114C155.656 290.897 155.817 290.639 155.926 290.354C156.036 290.07 156.092 289.766 156.091 289.458C156.089 288.838 155.858 288.243 155.449 287.805C155.039 287.366 154.485 287.118 153.906 287.116H138.383ZM152.909 290.934C152.835 290.934 152.762 290.915 152.696 290.879C152.63 290.842 152.574 290.789 152.532 290.724C152.49 290.658 152.463 290.583 152.454 290.504C152.445 290.426 152.454 290.345 152.48 290.271C152.684 289.672 152.827 289.051 152.909 288.419C152.924 288.302 152.977 288.194 153.06 288.116C153.142 288.037 153.248 287.992 153.358 287.99H153.822C154.112 287.983 154.396 288.072 154.637 288.246C154.821 288.38 154.973 288.56 155.077 288.772C155.181 288.983 155.235 289.219 155.234 289.458C155.231 289.697 155.175 289.931 155.071 290.141C154.968 290.352 154.818 290.534 154.637 290.671C154.392 290.839 154.106 290.925 153.815 290.919H153.393L152.909 290.934Z" fill="#B4C6D8"/>
<path d="M138.383 279.887C138.383 285.331 142.661 287.989 142.661 287.989H148.736C149.851 287.228 150.807 286.228 151.546 285.053C151.911 284.661 152.354 284.563 153.429 284.563H153.906C154.484 284.563 155.039 284.317 155.448 283.88C155.858 283.442 156.089 282.849 156.091 282.229C156.091 281.92 156.033 281.613 155.922 281.328C155.811 281.042 155.649 280.783 155.444 280.565C155.242 280.349 155.002 280.177 154.738 280.061C154.474 279.945 154.191 279.886 153.906 279.887H138.383ZM152.909 283.697C152.834 283.701 152.76 283.684 152.694 283.649C152.627 283.614 152.57 283.561 152.527 283.496C152.484 283.43 152.458 283.355 152.449 283.275C152.441 283.196 152.452 283.116 152.48 283.042C152.682 282.442 152.826 281.822 152.909 281.19C152.924 281.073 152.977 280.965 153.06 280.886C153.142 280.808 153.248 280.763 153.358 280.76H153.822C154.111 280.754 154.394 280.841 154.637 281.009C154.815 281.149 154.96 281.332 155.06 281.543C155.161 281.755 155.213 281.988 155.213 282.225C155.213 282.462 155.161 282.696 155.06 282.907C154.96 283.118 154.815 283.301 154.637 283.441C154.392 283.61 154.106 283.696 153.815 283.69H152.909V283.697Z" fill="#B4C6D8"/>
<path d="M138.383 272.651C138.383 278.102 142.661 280.761 142.661 280.761H148.736C149.851 279.999 150.807 278.999 151.546 277.824C151.911 277.425 152.354 277.335 153.429 277.335H153.906C154.485 277.335 155.041 277.088 155.451 276.648C155.86 276.209 156.091 275.614 156.091 274.993C156.091 274.372 155.86 273.776 155.451 273.337C155.041 272.898 154.485 272.651 153.906 272.651H138.383ZM152.909 276.469C152.834 276.471 152.76 276.453 152.694 276.416C152.627 276.38 152.57 276.327 152.528 276.261C152.485 276.196 152.458 276.119 152.45 276.04C152.442 275.96 152.452 275.88 152.48 275.806C152.683 275.209 152.827 274.59 152.909 273.961C152.922 273.843 152.976 273.734 153.058 273.656C153.141 273.577 153.248 273.533 153.358 273.532H153.822C154.111 273.525 154.394 273.612 154.637 273.78C154.821 273.915 154.971 274.096 155.075 274.307C155.179 274.518 155.234 274.754 155.234 274.993C155.234 275.232 155.179 275.467 155.075 275.678C154.971 275.889 154.821 276.07 154.637 276.205C154.393 276.377 154.106 276.464 153.815 276.454H153.393L152.909 276.469Z" fill="#B4C6D8"/>
<path d="M138.383 265.422C138.383 270.866 142.661 273.532 142.661 273.532H148.736C149.852 272.768 150.809 271.766 151.546 270.588C151.911 270.196 152.354 270.106 153.429 270.098H153.906C154.193 270.1 154.477 270.041 154.743 269.925C155.008 269.808 155.249 269.636 155.452 269.419C155.656 269.202 155.817 268.944 155.926 268.66C156.036 268.376 156.092 268.071 156.091 267.764C156.089 267.143 155.858 266.549 155.449 266.11C155.039 265.671 154.485 265.424 153.906 265.422H138.383ZM152.909 269.232C152.834 269.235 152.76 269.219 152.694 269.184C152.627 269.149 152.57 269.096 152.527 269.03C152.484 268.965 152.458 268.889 152.449 268.81C152.441 268.731 152.452 268.651 152.48 268.577C152.684 267.978 152.827 267.356 152.909 266.724C152.924 266.607 152.977 266.5 153.06 266.421C153.142 266.342 153.248 266.298 153.358 266.295H153.822C154.112 266.288 154.396 266.378 154.637 266.551C154.821 266.685 154.973 266.866 155.077 267.077C155.181 267.289 155.235 267.525 155.234 267.764C155.231 268.002 155.175 268.236 155.071 268.447C154.968 268.658 154.818 268.839 154.637 268.976C154.392 269.144 154.106 269.231 153.815 269.225H152.909V269.232Z" fill="#B4C6D8"/>
<path d="M138.383 258.193C138.383 263.637 142.661 266.295 142.661 266.295H148.736C149.851 265.534 150.807 264.534 151.546 263.359C151.911 262.967 152.354 262.869 153.429 262.869H153.906C154.203 262.887 154.5 262.84 154.779 262.731C155.058 262.621 155.314 262.452 155.53 262.233C155.746 262.014 155.919 261.751 156.036 261.458C156.154 261.165 156.215 260.85 156.215 260.531C156.215 260.213 156.154 259.897 156.036 259.604C155.919 259.312 155.746 259.048 155.53 258.829C155.314 258.61 155.058 258.441 154.779 258.331C154.5 258.222 154.203 258.175 153.906 258.193H138.383ZM152.909 262.004C152.834 262.007 152.76 261.99 152.694 261.955C152.627 261.92 152.57 261.867 152.527 261.802C152.484 261.736 152.458 261.661 152.449 261.581C152.441 261.502 152.452 261.422 152.48 261.348C152.682 260.748 152.826 260.128 152.909 259.496C152.924 259.379 152.977 259.271 153.06 259.192C153.142 259.114 153.248 259.069 153.358 259.066H153.822C154.111 259.06 154.394 259.147 154.637 259.315C154.815 259.455 154.96 259.638 155.06 259.849C155.161 260.061 155.213 260.294 155.213 260.531C155.213 260.768 155.161 261.002 155.06 261.213C154.96 261.425 154.815 261.607 154.637 261.747C154.392 261.916 154.106 262.002 153.815 261.996H152.909V262.004Z" fill="#B4C6D8"/>
<path d="M340.493 194.157H336.672V232.681H340.493V194.157Z" fill="#7E9039"/>
<path d="M336.672 194.157H329.191V232.681H336.672V194.157Z" fill="#F3BA64"/>
<path d="M60.9926 293.833L63.6969 294.202V295.226H51.8613V294.202L54.5725 293.833C54.717 293.812 54.8565 293.762 54.9824 293.683C55.1083 293.604 55.2181 293.499 55.3058 293.375C55.3934 293.25 55.457 293.108 55.4927 292.956C55.5284 292.805 55.5354 292.647 55.5136 292.493L55.4577 292.109L52.5215 272.124L51.8613 267.606H63.6969L63.0367 272.124L60.1074 292.109L60.0583 292.493C60.0355 292.647 60.0416 292.804 60.0765 292.955C60.1114 293.107 60.1743 293.249 60.2614 293.374C60.3485 293.499 60.4582 293.604 60.5838 293.683C60.7093 293.762 60.8483 293.813 60.9926 293.833V293.833Z" fill="white"/>
<path d="M76.311 293.833L79.0153 294.202V295.226H67.1797V294.202L69.8909 293.833C70.0354 293.812 70.1745 293.762 70.3004 293.683C70.4263 293.604 70.5365 293.499 70.6241 293.375C70.7118 293.25 70.7753 293.108 70.8111 292.956C70.8468 292.805 70.8538 292.647 70.832 292.493L70.7757 292.109L67.8399 272.124L67.1797 267.606H79.0153L78.3547 272.124L75.4257 292.109L75.3767 292.493C75.3539 292.647 75.36 292.804 75.3949 292.955C75.4298 293.107 75.4926 293.249 75.5797 293.374C75.6668 293.499 75.7766 293.604 75.9021 293.683C76.0277 293.762 76.1667 293.813 76.311 293.833V293.833Z" fill="white"/>
<path d="M91.6293 293.833L94.3333 294.202V295.226H82.498V294.202L85.2092 293.833C85.3537 293.812 85.4928 293.762 85.6187 293.683C85.7446 293.604 85.8549 293.499 85.9425 293.375C86.0302 293.25 86.0937 293.108 86.1294 292.956C86.1651 292.805 86.1721 292.647 86.1503 292.493L86.0941 292.109L83.1583 272.124L82.498 267.606H94.3333L93.6731 272.124L90.7441 292.109L90.6951 292.493C90.6722 292.647 90.6784 292.804 90.7132 292.955C90.7481 293.107 90.811 293.249 90.8981 293.374C90.9852 293.499 91.0946 293.604 91.2201 293.683C91.3457 293.762 91.485 293.813 91.6293 293.833V293.833Z" fill="white"/>
<path d="M315.908 202.387H320.663C320.882 202.387 321.098 202.435 321.298 202.529C321.499 202.622 321.68 202.759 321.829 202.93L323.978 205.354C324.188 205.587 324.332 205.88 324.393 206.197C324.454 206.514 324.429 206.844 324.322 207.147L321.127 216.333C321.014 216.655 320.812 216.931 320.548 217.126C320.284 217.321 319.972 217.426 319.652 217.425H319.258C319.171 217.426 319.086 217.399 319.014 217.348C318.942 217.296 318.886 217.222 318.854 217.135C318.822 217.049 318.815 216.953 318.835 216.863C318.854 216.772 318.899 216.69 318.963 216.627L319.349 216.228C319.567 216.007 319.722 215.725 319.799 215.415L321.682 207.312C321.748 207.028 321.744 206.73 321.672 206.448C321.599 206.166 321.459 205.909 321.267 205.701V205.701C321.042 205.458 320.754 205.294 320.44 205.231C320.127 205.168 319.803 205.208 319.511 205.347L315.521 207.222L315.908 202.387Z" fill="#0D2135"/>
<path d="M317.32 202.387L314.053 217.418H303.138L299.879 202.387H317.32Z" fill="#D1DDE9"/>
<path d="M315.866 227.5H301.326L303.138 217.418L308.596 217.41L314.053 217.418L315.866 227.5Z" fill="#D1DDE9"/>
<path d="M317.32 202.387H299.879L307.029 196.145H310.169L317.32 202.387Z" fill="#D1DDE9"/>
<path d="M307.366 217.41L305.632 202.387H299.879L303.138 217.418L307.366 217.41Z" fill="#95ABC1"/>
<path d="M309.826 217.41L311.561 202.387H317.321L314.055 217.418L309.826 217.41Z" fill="#B4C6D8"/>
<path d="M311.399 190L310.17 196.145H307.03L305.801 190H311.399Z" fill="#0D2135"/>
<path d="M311.561 202.387H305.633L308.597 196.145L311.561 202.387Z" fill="#B4C6D8"/>
<path d="M310.851 227.5H306.342L307.374 217.41H309.826L310.851 227.5Z" fill="#95ABC1"/>
<path d="M301.508 202.387H296.676L301.508 209.902V202.387Z" fill="#B4C6D8"/>
<path d="M315.873 227.5H301.326V232.809H315.873V227.5Z" fill="#B4C6D8"/>
<path d="M169.584 265.128H164.829C164.611 265.128 164.395 265.176 164.195 265.268C163.994 265.359 163.813 265.494 163.663 265.663L161.513 268.087C161.304 268.322 161.16 268.616 161.099 268.934C161.038 269.252 161.063 269.583 161.169 269.887L164.365 279.066C164.478 279.388 164.679 279.666 164.943 279.863C165.206 280.059 165.519 280.165 165.84 280.166H166.234C166.321 280.167 166.406 280.14 166.478 280.088C166.55 280.036 166.606 279.962 166.638 279.875C166.67 279.789 166.676 279.694 166.657 279.603C166.637 279.513 166.593 279.43 166.529 279.367L166.142 278.968C165.925 278.744 165.769 278.461 165.693 278.148L163.81 270.045C163.744 269.762 163.748 269.466 163.82 269.185C163.893 268.904 164.032 268.647 164.225 268.441V268.441C164.45 268.199 164.738 268.035 165.051 267.97C165.364 267.906 165.688 267.944 165.981 268.08L169.97 269.962L169.584 265.128Z" fill="#0D2135"/>
<path d="M168.137 265.121L171.396 280.158H182.318L185.577 265.121H168.137Z" fill="#D1DDE9"/>
<path d="M169.582 290.241H184.122L182.317 280.158L176.852 280.143L171.394 280.158L169.582 290.241Z" fill="#D1DDE9"/>
<path d="M168.137 265.12H185.577L178.427 258.878H175.287L168.137 265.12Z" fill="#D1DDE9"/>
<path d="M178.082 280.143L179.817 265.121H185.577L182.318 280.158L178.082 280.143Z" fill="#95ABC1"/>
<path d="M175.631 280.143L173.889 265.121H168.137L171.396 280.158L175.631 280.143Z" fill="#B4C6D8"/>
<path d="M174.057 252.733L175.286 258.878H178.426L179.655 252.733H174.057Z" fill="#0D2135"/>
<path d="M173.889 265.12H179.817L176.853 258.878L173.889 265.12Z" fill="#B4C6D8"/>
<path d="M174.598 290.241H179.114L178.082 280.143H175.63L174.598 290.241Z" fill="#95ABC1"/>
<path d="M183.947 265.121H188.773L183.947 272.643V265.121Z" fill="#B4C6D8"/>
<path d="M169.584 295.549H184.131V290.241H169.584V295.549Z" fill="#B4C6D8"/>
<path d="M356.22 295.218H1.89844V305.76H356.22V295.218Z" fill="#858A67"/>
<path d="M356.226 232.673H1.89844" stroke="#858A67" stroke-width="5" stroke-miterlimit="10"/>
<path d="M210.429 219.782C210.429 220.196 210.429 220.61 210.379 221.017C210.346 221.558 210.281 222.097 210.183 222.629C210.183 222.629 210.183 222.674 210.183 222.696C209.831 224.736 209.1 226.68 208.033 228.411L207.83 228.743C206.035 231.489 203.473 233.554 200.512 234.637C197.552 235.72 194.347 235.766 191.361 234.769C188.375 233.771 185.761 231.782 183.899 229.088C182.036 226.394 181.02 223.135 180.998 219.782C180.998 219.546 180.998 219.313 180.998 219.082C181.033 218.766 181.054 218.434 181.061 218.08C181.057 218.055 181.057 218.03 181.061 218.005C181.26 216.013 181.821 214.081 182.712 212.32C184.28 209.249 186.754 206.823 189.746 205.422C192.739 204.02 196.08 203.723 199.247 204.577C202.414 205.43 205.227 207.386 207.245 210.138C209.264 212.889 210.374 216.281 210.401 219.782H210.429Z" fill="#955646"/>
<path d="M204.788 233.668C202.063 238.397 201.683 241.529 207.127 248.683L207.064 256.401L188.001 248.811C188.001 248.811 190.965 238.698 186.097 236.861C181.229 235.023 180.991 234.858 181.103 229.767C181.286 226.906 179.186 227.275 179.186 225.611C179.186 224.105 180.668 222.403 181.012 219.082C181.047 218.766 181.068 218.434 181.075 218.081C181.078 218.056 181.078 218.03 181.075 218.005V218.005L198.881 224.888L208.012 228.412L207.809 228.743C206.657 230.64 205.631 232.229 204.788 233.668Z" fill="#955646"/>
<path d="M210.38 221.017C210.316 221.619 210.246 222.169 210.183 222.629C210.183 222.629 210.183 222.674 210.183 222.696C209.831 224.736 209.1 226.68 208.034 228.412L207.83 228.743C206.664 230.64 205.617 232.229 204.796 233.668C204.277 233.614 203.766 233.498 203.271 233.321C200.188 232.229 198.558 228.848 198.902 224.888C198.943 224.35 199.021 223.817 199.134 223.291L192.728 220.407C192.272 215.219 186.772 215.686 182.747 212.32C182.343 211.986 181.965 211.618 181.616 211.22C177.57 206.612 182.227 200.016 187.671 203.028C193.115 206.04 197.329 199.172 202.717 205.904C211.3 205.091 210.97 215.528 210.38 221.017Z" fill="#2D1C17"/>
<path d="M195.707 226.167C197.65 226.167 199.226 224.478 199.226 222.395C199.226 220.311 197.65 218.622 195.707 218.622C193.763 218.622 192.188 220.311 192.188 222.395C192.188 224.478 193.763 226.167 195.707 226.167Z" fill="#955646"/>
<path d="M209.391 211.115C209.771 209.988 210.366 208.957 211.138 208.089C211.909 207.22 212.84 206.533 213.872 206.07C214.91 205.622 216.03 205.433 217.146 205.519C218.263 205.605 219.345 205.964 220.313 206.567C221.509 207.39 222.51 208.502 223.235 209.813C224.756 212.448 225.43 215.546 225.153 218.63C224.963 220.664 224.359 222.636 224.197 224.655C224.043 226.552 224.436 228.751 225.967 229.715C224.228 230.365 222.372 230.575 220.544 230.328C218.716 230.081 216.966 229.384 215.431 228.292C213.907 227.158 212.645 225.665 211.742 223.928C210.839 222.191 210.318 220.255 210.219 218.269C210.135 216.002 210.613 212.99 209.391 211.115Z" fill="#2D1C17"/>
<path d="M230.159 262.049V300.497H175.604C172.562 290.904 172.913 284.262 174.199 268.449C174.532 262.599 176.967 257.115 180.991 253.148C181.581 252.538 182.171 251.974 182.754 251.431C185.529 248.856 188.085 246.913 188.837 244.09L201.944 248.811L206.397 254.142L205.322 246.123C207.166 246.262 208.976 246.722 210.682 247.486C211.595 247.862 212.522 248.314 213.442 248.811C221.85 253.359 230.159 262.049 230.159 262.049Z" fill="#74899F"/>
<path d="M201.945 248.803L185.558 242.847L183.879 250.392L200.596 255.204L201.945 248.803Z" fill="#95ABC1"/>
<path d="M205.316 246.123L205.534 246.469L207.564 249.745V244.09L203.715 243.186C204.164 244.215 204.7 245.198 205.316 246.123V246.123Z" fill="#95ABC1"/>
<path d="M205.632 268.035C202.211 262.064 191.921 253.593 180.984 253.193C181.574 252.583 182.164 252.019 182.747 251.476C198.2 254.24 205.07 263.246 207.886 268.284L218.12 268.239C215.142 256.439 212.087 250.076 210.675 247.531C211.588 247.907 212.515 248.359 213.435 248.856C222.061 267.681 223.817 297.177 223.971 300.543V300.859H193.564V285.445C203.763 283.743 209.066 273.961 205.632 268.035Z" fill="#0D2135"/>
<path d="M216.792 281.205L218.141 282.817L233.109 269.632L238.637 276.123L219.159 297.892C217.731 299.498 215.79 300.468 213.724 300.608C211.657 300.748 209.618 300.046 208.012 298.645L204.557 295.633L216.792 281.205Z" fill="#955646"/>
<path d="M216.792 281.197L203.707 265.249L186.842 284.496L201.705 300.813L216.792 281.197Z" fill="#74899F"/>
<path d="M389.682 300.497H-59V448.185H389.682V300.497Z" fill="#858A67"/>
<path d="M389.682 300.497H-59V319.691H389.682V300.497Z" fill="#3D4446"/>
<path d="M-59 324.804H389.682" stroke="#66694F" stroke-miterlimit="10"/>
<path d="M-59 330.421H389.682" stroke="#66694F" stroke-miterlimit="10"/>
<path d="M-59 336.039H389.682" stroke="#66694F" stroke-miterlimit="10"/>
<path d="M-59 341.664H389.682" stroke="#66694F" stroke-miterlimit="10"/>
<path d="M-59 347.281H389.682" stroke="#66694F" stroke-miterlimit="10"/>
<path d="M-59 352.899H389.682" stroke="#66694F" stroke-miterlimit="10"/>
<path d="M-59 358.524H389.682" stroke="#66694F" stroke-miterlimit="10"/>
<path d="M-59 364.141H389.682" stroke="#66694F" stroke-miterlimit="10"/>
<path d="M-59 369.759H389.682" stroke="#66694F" stroke-miterlimit="10"/>
<path d="M259.597 330.873H168.959V433.17H259.597V330.873Z" fill="#66694F"/>
<path d="M45.7634 330.873H-44.875V433.17H45.7634V330.873Z" fill="#66694F"/>
<path d="M45.7634 330.873H-44.875V333.795H45.7634V330.873Z" fill="#424435"/>
<path d="M152.683 330.873H62.0449V433.17H152.683V330.873Z" fill="#66694F"/>
<path d="M366.517 330.873H275.879V433.17H366.517V330.873Z" fill="#66694F"/>
<path d="M366.474 330.873H275.836V333.795H366.474V330.873Z" fill="#424435"/>
<path d="M152.683 330.873H62.0449V333.795H152.683V330.873Z" fill="#424435"/>
<path d="M259.597 330.873H168.959V333.795H259.597V330.873Z" fill="#424435"/>
<path d="M398.706 448.177H300.84L320.135 330.873H418.001L398.706 448.177Z" fill="#0D2135"/>
<path d="M394.711 361.762H331.951" stroke="white" stroke-miterlimit="10"/>
<path d="M299.184 249.021H224.006V295.64H299.184V249.021Z" fill="#B4C6D8"/>
<path d="M280.136 246.636L263.426 236.293L230.156 298.069L246.867 308.412L280.136 246.636Z" fill="#D1DDE9"/>
<path d="M298.237 241.41L292.859 238.082L259.59 299.858L264.967 303.186L298.237 241.41Z" fill="#D1DDE9"/>
<path d="M299.184 249.021H224.006L232.596 230.429H290.594L299.184 249.021Z" fill="#95ABC1"/>
<path d="M239.326 300.489H230.152V295.64H240.337L239.326 300.489Z" fill="#0D2135"/>
<path d="M283.872 300.489H293.038V295.64H282.854L283.872 300.489Z" fill="#0D2135"/>
<path d="M325.609 300.497H312.951L316.189 282.455H322.371L325.609 300.497Z" fill="white"/>
<path d="M325.609 293.539H312.951L316.189 275.497H322.371L325.609 293.539Z" fill="#D1DDE9"/>
<path d="M325.609 286.589H312.951L316.189 268.547H322.371L325.609 286.589Z" fill="white"/>
<path d="M325.609 279.631H312.951L316.189 261.596H322.371L325.609 279.631Z" fill="#D1DDE9"/>
<path d="M325.609 272.681H312.951L316.189 254.639H322.371L325.609 272.681Z" fill="white"/>
<path d="M325.609 265.731H312.951L316.189 247.688H322.371L325.609 265.731Z" fill="#D1DDE9"/>
<path d="M325.609 258.773H312.951L316.189 240.73H322.371L325.609 258.773Z" fill="white"/>
<path d="M370.128 271.22L367.374 295.648C366.537 295.646 365.734 295.288 365.141 294.653C364.549 294.018 364.215 293.157 364.213 292.259C364.213 292.146 364.213 292.034 364.213 291.921L365.857 274.089C365.885 273.801 365.859 273.51 365.782 273.232C365.705 272.955 365.577 272.696 365.406 272.471C365.062 272.017 364.563 271.728 364.02 271.668C363.477 271.609 362.934 271.782 362.511 272.152C362.087 272.521 361.818 273.055 361.762 273.637L361.369 277.576L359.1 300.497H342.109C342.109 300.497 344.3 287.523 341.708 277.576C340.62 273.389 338.674 269.729 335.387 267.787H367.318C367.723 267.782 368.123 267.872 368.492 268.049C368.862 268.226 369.191 268.486 369.458 268.812C369.725 269.138 369.923 269.522 370.038 269.938C370.154 270.353 370.184 270.791 370.128 271.22V271.22Z" fill="white"/>
<path d="M42.4968 226.167H-42.2695V300.489H42.4968V226.167Z" fill="#B4C6D8"/>
<path d="M38.0515 226.167H-37.8223V289.684H38.0515V226.167Z" fill="#74899F"/>
<path d="M27.7261 238.487H5.36133V247.432H27.7261V238.487Z" fill="#61382D"/>
<path d="M27.7261 238.487H5.36133V241.529H27.7261V238.487Z" fill="#2D1C17"/>
<path d="M5.36133 242.899C6.76614 242.899 6.76614 243.758 8.17095 243.758C9.57576 243.758 9.57576 242.899 10.9806 242.899C12.3854 242.899 12.3854 243.758 13.7902 243.758C15.195 243.758 15.195 242.899 16.5998 242.899C18.0046 242.899 18.0046 243.758 19.4094 243.758C20.8142 243.758 20.8142 242.899 22.219 242.899C23.6239 242.899 23.6239 243.758 25.0287 243.758C26.4335 243.758 26.4335 242.899 27.8383 242.899" stroke="#2D1C17" stroke-width="0.5" stroke-miterlimit="10"/>
<path d="M16.8095 238.486C17.7858 238.486 18.9165 238.283 19.4363 237.417C19.5588 237.254 19.6256 237.051 19.6256 236.841C19.6256 236.632 19.5588 236.428 19.4363 236.265C19.2931 236.165 19.1296 236.104 18.9595 236.087C18.7894 236.07 18.6178 236.098 18.4598 236.167C18.1365 236.3 17.779 236.3 17.4556 236.167C17.3011 236.069 17.1955 235.911 17.041 235.828C16.8788 235.763 16.7035 235.743 16.5323 235.772C16.3611 235.801 16.2001 235.878 16.0649 235.994C15.7745 236.248 15.4247 236.412 15.0534 236.468C14.6109 236.468 14.351 236.085 13.9155 235.994C13.48 235.904 13.3888 236.16 13.4871 236.619C13.8172 238.268 15.51 238.486 16.8095 238.486Z" fill="white"/>
<path d="M33.283 247.433C23.7654 250.784 16.5447 250.309 16.5447 250.309C16.5447 250.309 9.32423 250.784 -0.193359 247.433H33.283Z" fill="white"/>
<path d="M33.283 267.041C23.7654 270.392 16.5447 269.917 16.5447 269.917C16.5447 269.917 9.32423 270.392 -0.193359 267.041H33.283Z" fill="white"/>
<path d="M28.2751 258.916H4.80078V267.033H28.2751V258.916Z" fill="#F1ECE6"/>
<path d="M28.2751 263.329H4.80078V264.247H28.2751V263.329Z" fill="#9FB33A"/>
<path d="M28.2751 258.916H4.80078V261.167H28.2751V258.916Z" fill="#BBCE47"/>
<path d="M16.1431 258.916H12.1465V267.033H16.1431V258.916Z" fill="#E1DAD0"/>
<path d="M16.1431 258.916H12.1465V261.167H16.1431V258.916Z" fill="#9FB33A"/>
<path d="M16.1431 263.329H12.1465V264.247H16.1431V263.329Z" fill="#7E9039"/>
<path d="M8.7957 257.636C8.77257 257.959 8.63636 258.262 8.41432 258.482C8.19227 258.703 7.90071 258.825 7.59805 258.825C7.29538 258.825 7.00382 258.703 6.78177 258.482C6.55973 258.262 6.42352 257.959 6.40039 257.636H8.7957Z" fill="#7E9039"/>
<path d="M13.2694 257.636C13.2694 257.977 13.1427 258.305 12.9175 258.546C12.6922 258.788 12.3868 258.923 12.0683 258.923C11.7497 258.923 11.444 258.788 11.2187 258.546C10.9935 258.305 10.8672 257.977 10.8672 257.636H13.2694Z" fill="#7E9039"/>
<path d="M17.7371 257.636C17.714 257.959 17.5778 258.262 17.3557 258.482C17.1337 258.703 16.8421 258.825 16.5395 258.825C16.2368 258.825 15.9452 258.703 15.7232 258.482C15.5011 258.262 15.3649 257.959 15.3418 257.636H17.7371Z" fill="#7E9039"/>
<path d="M22.2108 257.636C22.2108 257.977 22.0841 258.305 21.8589 258.546C21.6336 258.788 21.3282 258.923 21.0097 258.923C20.6911 258.923 20.3854 258.788 20.1601 258.546C19.9349 258.305 19.8086 257.977 19.8086 257.636H22.2108Z" fill="#7E9039"/>
<path d="M26.6785 257.636C26.6554 257.959 26.5192 258.262 26.2971 258.482C26.0751 258.703 25.7835 258.825 25.4809 258.825C25.1782 258.825 24.8866 258.703 24.6646 258.482C24.4425 258.262 24.3063 257.959 24.2832 257.636H26.6785Z" fill="#7E9039"/>
<path d="M4.43481 282.492L3.28997 289.684H-3.94501L-5.08984 282.492H4.43481Z" fill="white"/>
<path d="M4.4348 282.5V282.357C4.48042 282.106 4.47359 281.848 4.41491 281.6C4.35622 281.352 4.24701 281.121 4.09526 280.924C3.9435 280.727 3.75302 280.568 3.53724 280.459C3.32146 280.35 3.08568 280.293 2.84718 280.294H-3.55163C-3.78452 280.301 -4.01321 280.363 -4.22179 280.475C-4.43037 280.586 -4.61379 280.744 -4.75992 280.939C-4.90604 281.134 -5.01131 281.359 -5.06825 281.602C-5.12519 281.844 -5.13251 282.096 -5.08985 282.342V282.538L4.4348 282.5Z" fill="#DE9885"/>
<path d="M3.96314 278.381C4.02306 278.61 4.03173 278.85 3.98852 279.083C3.94531 279.316 3.85144 279.534 3.71449 279.72C3.57753 279.907 3.40129 280.056 3.20037 280.156C2.99945 280.255 2.77955 280.303 2.55833 280.294H-3.23651C-3.61561 280.294 -3.97918 280.132 -4.24725 279.845C-4.51531 279.558 -4.66602 279.168 -4.66602 278.762C-4.66602 278.355 -4.51531 277.965 -4.24725 277.678C-3.97918 277.391 -3.61561 277.229 -3.23651 277.229H-2.41475C-2.26783 277.229 -2.12301 277.192 -1.99187 277.121C-1.86073 277.05 -1.74691 276.947 -1.65953 276.82C-1.57215 276.694 -1.51371 276.547 -1.48873 276.391C-1.46375 276.236 -1.47307 276.077 -1.51583 275.926C-1.63069 275.493 -1.68727 275.044 -1.68422 274.594C-1.68422 274.594 -0.181064 277.229 1.49066 277.229H2.49488C2.82422 277.219 3.1475 277.327 3.41336 277.535C3.67921 277.744 3.87271 278.042 3.96314 278.381V278.381Z" fill="#1D2124"/>
<path d="M17.7512 282.492L16.6064 289.684H9.3714L8.22656 282.492H17.7512Z" fill="white"/>
<path d="M17.7587 282.5V282.357C17.8043 282.106 17.7978 281.848 17.7391 281.6C17.6804 281.352 17.5712 281.121 17.4195 280.924C17.2677 280.727 17.0769 280.568 16.8611 280.459C16.6453 280.35 16.4099 280.293 16.1714 280.294H9.77258C9.53882 280.295 9.30783 280.35 9.0959 280.456C8.88397 280.562 8.69582 280.716 8.5444 280.907C8.39298 281.098 8.28184 281.321 8.21858 281.563C8.15531 281.804 8.14167 282.057 8.17811 282.305L8.21309 282.5H17.7587Z" fill="#DE9885"/>
<path d="M17.2815 278.381C17.3414 278.61 17.3501 278.85 17.3069 279.083C17.2637 279.316 17.1698 279.534 17.0328 279.72C16.8959 279.907 16.7197 280.056 16.5187 280.156C16.3178 280.255 16.0979 280.303 15.8767 280.294H10.0818C9.70275 280.294 9.33917 280.132 9.07111 279.845C8.80305 279.558 8.65234 279.168 8.65234 278.762C8.65234 278.355 8.80305 277.965 9.07111 277.678C9.33917 277.391 9.70275 277.229 10.0818 277.229H10.9036C11.0505 277.229 11.1953 277.192 11.3265 277.121C11.4576 277.05 11.5714 276.947 11.6588 276.82C11.7462 276.694 11.8047 276.547 11.8296 276.391C11.8546 276.236 11.8453 276.077 11.8025 275.926C11.6877 275.493 11.6311 275.044 11.6341 274.594C11.6341 274.594 13.1373 277.229 14.809 277.229H15.8064C16.1369 277.217 16.4617 277.324 16.729 277.533C16.9963 277.742 17.1908 278.04 17.2815 278.381V278.381Z" fill="#1D2124"/>
<path d="M31.0754 282.492L29.9303 289.684H22.6956L21.5508 282.492H31.0754Z" fill="white"/>
<path d="M31.0766 282.5V282.357C31.1222 282.106 31.1154 281.848 31.0567 281.6C30.998 281.352 30.8888 281.121 30.737 280.924C30.5853 280.727 30.3948 280.568 30.179 280.459C29.9632 280.35 29.7275 280.293 29.489 280.294H23.0901C22.856 280.294 22.6246 280.348 22.4121 280.454C22.1996 280.559 22.0109 280.713 21.8592 280.904C21.7076 281.095 21.5965 281.32 21.5337 281.561C21.4709 281.803 21.458 282.057 21.4957 282.305V282.5H31.0766Z" fill="#DE9885"/>
<path d="M30.6054 278.381C30.6653 278.61 30.6743 278.85 30.6311 279.083C30.5879 279.316 30.4937 279.534 30.3567 279.72C30.2198 279.907 30.0439 280.056 29.8429 280.156C29.642 280.255 29.4218 280.303 29.2006 280.294H23.4057C23.0266 280.294 22.6631 280.132 22.395 279.845C22.1269 279.558 21.9766 279.168 21.9766 278.762C21.9766 278.355 22.1269 277.965 22.395 277.678C22.6631 277.391 23.0266 277.229 23.4057 277.229H24.2278C24.3747 277.229 24.5196 277.192 24.6507 277.121C24.7819 277.05 24.8957 276.947 24.983 276.82C25.0704 276.694 25.1289 276.547 25.1538 276.391C25.1788 276.236 25.1695 276.077 25.1268 275.926C25.0119 275.493 24.955 275.044 24.958 274.594C24.958 274.594 26.4612 277.229 28.1329 277.229H29.1375C29.4668 277.219 29.7901 277.327 30.0559 277.535C30.3218 277.744 30.5149 278.042 30.6054 278.381V278.381Z" fill="#1D2124"/>
<path d="M38.0515 289.684H-37.8223" stroke="white" stroke-miterlimit="10"/>
<path d="M38.0515 270.234H-37.8223" stroke="white" stroke-miterlimit="10"/>
<path d="M38.0515 250.783H-37.8223" stroke="white" stroke-miterlimit="10"/>
<path opacity="0.3" d="M14.1838 226.167L-20.0231 289.684H-37.8223L-3.61501 226.167H14.1838Z" fill="white"/>
<path opacity="0.3" d="M30.0382 226.167L-4.1691 289.684H-13.6797L20.5276 226.167H30.0382Z" fill="white"/>
<path d="M89.0312 317.131L87.5352 371.009H139.302L136.675 317.131H89.0312Z" fill="#D3E175"/>
<path d="M143.649 284.495L145.188 296.702C145.939 304.322 136.056 306.747 133.127 300.045C130.198 293.343 128.26 289.194 128.26 289.194L143.649 284.495Z" fill="#DE9885"/>
<path d="M107.702 426.829C108.25 399.164 111.362 384.465 110.94 371.016H94.2091C93.6612 393.855 96.6886 411.009 96.3163 426.265L107.702 426.829Z" fill="#DE9885"/>
<path d="M103.305 249.39L122.129 248.84C122.129 248.84 118.905 238.818 123.731 236.837C128.556 234.857 128.781 234.691 128.536 229.601C128.283 226.747 130.39 227.056 130.347 225.392C130.305 223.728 128.451 221.883 128.24 217.862L101.549 229.059C106.873 237.29 109.921 239.601 102.954 249.292L103.305 249.39Z" fill="#DE9885"/>
<path d="M128.4 219.624C128.464 222.979 127.53 226.27 125.733 229.019C123.936 231.768 121.37 233.832 118.407 234.914C115.443 235.996 112.235 236.039 109.247 235.036C106.259 234.034 103.646 232.038 101.786 229.337L101.589 229.036C100.517 227.384 99.751 225.525 99.3346 223.562C99.1217 222.55 99.0019 221.519 98.9765 220.482C98.9599 219.839 98.9788 219.195 99.0328 218.554V218.487C99.4013 214.9 100.903 211.555 103.289 209.01C105.675 206.464 108.801 204.87 112.149 204.492C115.496 204.113 118.864 204.974 121.693 206.931C124.521 208.888 126.64 211.823 127.698 215.249V215.249C127.951 216.088 128.137 216.95 128.253 217.824C128.249 217.844 128.249 217.864 128.253 217.884C128.295 218.215 128.33 218.562 128.351 218.908C128.365 219.179 128.365 219.398 128.4 219.624Z" fill="#DE9885"/>
<path d="M110.419 245.151H119.585C131.238 245.151 138.508 254.797 140.875 264.051C143.242 273.306 146.052 283.554 146.052 283.554L134.813 287.974L136.85 319.691H89.0303V286.973L77.3984 274.925L91.0953 251.401C94.4739 245.347 98.9835 245.151 110.419 245.151Z" fill="#2A67B2"/>
<path d="M149.866 314.714H73.5293" stroke="#D1DDE9" stroke-miterlimit="10"/>
<path d="M149.866 310.354H73.5293" stroke="#D1DDE9" stroke-miterlimit="10"/>
<path d="M149.866 306.001H73.5293" stroke="#D1DDE9" stroke-miterlimit="10"/>
<path d="M149.866 301.649H73.5293" stroke="#D1DDE9" stroke-miterlimit="10"/>
<path d="M149.866 297.289H73.5293" stroke="#D1DDE9" stroke-miterlimit="10"/>
<path d="M149.866 292.937H73.5293" stroke="#D1DDE9" stroke-miterlimit="10"/>
<path d="M149.866 288.584H73.5293" stroke="#D1DDE9" stroke-miterlimit="10"/>
<path d="M149.866 284.225H73.5293" stroke="#D1DDE9" stroke-miterlimit="10"/>
<path d="M149.866 279.872H73.5293" stroke="#D1DDE9" stroke-miterlimit="10"/>
<path d="M149.866 275.52H73.5293" stroke="#D1DDE9" stroke-miterlimit="10"/>
<path d="M149.866 271.16H73.5293" stroke="#D1DDE9" stroke-miterlimit="10"/>
<path d="M149.866 266.807H73.5293" stroke="#D1DDE9" stroke-miterlimit="10"/>
<path d="M149.866 262.455H73.5293" stroke="#D1DDE9" stroke-miterlimit="10"/>
<path d="M149.866 258.095H73.5293" stroke="#D1DDE9" stroke-miterlimit="10"/>
<path d="M149.866 253.743H73.5293" stroke="#D1DDE9" stroke-miterlimit="10"/>
<path d="M149.866 249.39H73.5293" stroke="#D1DDE9" stroke-miterlimit="10"/>
<path d="M128.261 217.839C126.302 217.997 124.18 218.396 122.129 216.898C121.563 216.476 121.057 215.968 120.626 215.392L120.352 217.402L119.804 221.37L119.488 223.698L113.384 226.355L113.518 226.506C116.693 230.038 117.276 232.53 117.065 235.384C117.065 235.527 117.065 235.663 117.065 235.806C116.882 237.673 116.166 244.142 115.618 249.006C115.26 252.221 114.972 254.736 114.972 254.736H94.918L98.43 223.803L99.0343 218.532V218.464C99.4028 214.877 100.905 211.533 103.291 208.987C105.676 206.442 108.803 204.847 112.15 204.469C115.498 204.091 118.866 204.952 121.694 206.908C124.522 208.865 126.641 211.8 127.699 215.226C127.957 216.078 128.145 216.952 128.261 217.839V217.839Z" fill="#D3E175"/>
<path d="M115.968 227.591C117.912 227.591 119.487 225.901 119.487 223.818C119.487 221.734 117.912 220.045 115.968 220.045C114.025 220.045 112.449 221.734 112.449 223.818C112.449 225.901 114.025 227.591 115.968 227.591Z" fill="#DE9885"/>
<path d="M127.706 215.248L122.129 216.882L120.352 217.402L99.3358 223.547L98.4297 223.81L99.034 218.539V218.472C99.4025 214.884 100.904 211.54 103.29 208.995C105.676 206.449 108.802 204.855 112.15 204.476C115.498 204.098 118.865 204.959 121.694 206.916C124.522 208.872 126.641 211.807 127.699 215.233L127.706 215.248Z" fill="#0D2135"/>
<path d="M123.928 215.964L140.869 211.009" stroke="#1B4481" stroke-miterlimit="10" stroke-linecap="round"/>
<path d="M109.267 371.016C109.814 345.632 105.41 330.873 105.41 330.873V371.016H109.267Z" fill="#BBCE47"/>
<path d="M122.747 426.829C123.295 399.164 126.407 384.465 125.985 371.016H109.254C108.706 393.855 111.734 411.009 111.361 426.265L122.747 426.829Z" fill="#DE9885"/>
<path d="M77.4068 274.91L59.7623 261.122C58.793 259.959 58.0119 258.631 57.4513 257.191C57.1282 256.393 56.8122 255.497 56.0887 255.106C55.436 254.882 54.7488 254.797 54.0659 254.857C53.3736 254.803 52.7094 254.542 52.1483 254.104L47.2315 249.623C47.0674 249.47 46.8552 249.389 46.6378 249.396C46.4203 249.403 46.2134 249.498 46.0582 249.661C45.89 249.834 45.7921 250.07 45.7855 250.32C45.7789 250.569 45.8643 250.812 46.0232 250.994L51.4596 257.154C51.2292 257.161 51.0067 257.244 50.821 257.391C50.6354 257.537 50.4954 257.741 50.4201 257.975C50.3147 258.434 50.357 258.916 50.2376 259.36C50.0761 259.962 49.6334 260.467 49.5843 261.092C49.5351 261.717 49.8161 262.184 49.7599 262.733C49.7177 263.11 49.5283 263.487 49.458 263.825C49.2824 264.797 49.9567 265.685 50.631 266.363L53.2859 268.509C54.4379 269.458 56.0956 269.126 57.5847 270.693L72.8058 286.039C74.826 288.076 77.4182 289.338 80.178 289.63C82.9378 289.921 85.7101 289.225 88.0622 287.65L89.0596 286.981L77.4068 274.91Z" fill="#DE9885"/>
</g>
<defs>
<clipPath id="clip0_7720_1162">
<rect width="360" height="372" rx="16" fill="white"/>
</clipPath>
</defs>
</svg>
