<svg width="375" height="223" viewBox="0 0 375 223" fill="none" xmlns="http://www.w3.org/2000/svg">
<path d="M319.044 152.54C315.407 154.564 311.314 155.627 307.152 155.627C302.99 155.627 298.897 154.564 295.26 152.54H319.044Z" fill="#2A67B2"/>
<path d="M296.125 142.348C295.728 142.331 295.332 142.394 294.96 142.534C294.588 142.674 294.249 142.888 293.962 143.163C293.675 143.437 293.447 143.767 293.291 144.132C293.135 144.498 293.055 144.891 293.055 145.288C293.055 145.685 293.135 146.078 293.291 146.444C293.447 146.809 293.675 147.139 293.962 147.413C294.249 147.688 294.588 147.902 294.96 148.042C295.332 148.182 295.728 148.245 296.125 148.228H296.768C298.22 148.228 298.82 148.349 299.309 148.844C300.297 150.323 301.58 151.581 303.077 152.54H311.235C311.235 152.54 317.004 149.196 317.004 142.348H296.125ZM296.763 147.128H296.213C295.823 147.136 295.439 147.027 295.113 146.814C294.863 146.646 294.659 146.418 294.517 146.152C294.376 145.886 294.302 145.589 294.302 145.288C294.302 144.987 294.376 144.69 294.517 144.424C294.659 144.158 294.863 143.93 295.113 143.762C295.44 143.55 295.823 143.441 296.213 143.448H296.834C296.985 143.449 297.129 143.506 297.24 143.607C297.351 143.709 297.42 143.848 297.434 143.998C297.545 144.793 297.743 145.573 298.022 146.325C298.059 146.419 298.072 146.52 298.059 146.62C298.047 146.72 298.01 146.815 297.951 146.897C297.893 146.979 297.815 147.045 297.725 147.089C297.634 147.133 297.534 147.154 297.434 147.15L296.763 147.128Z" fill="#2A67B2"/>
<path d="M272.691 114.026H19.3652V162.392H272.691V114.026Z" fill="#124A53"/>
<path d="M254.837 179.988H35.6914V207.953H254.837V179.988Z" fill="#17717F"/>
<path d="M254.837 162.386H35.6914V179.988H254.837V162.386Z" fill="#17717F"/>
<path d="M35.697 132.161V207.958H24.4209C22.0138 207.958 19.7055 207.002 18.0035 205.3C16.3014 203.598 15.345 201.289 15.345 198.882V164.323C15.3794 160.772 14.6188 157.259 13.1188 154.041C11.6188 150.823 9.41749 147.982 6.67636 145.725C3.81739 143.431 1.73435 140.311 0.710391 136.791C-0.313571 133.271 -0.228797 129.521 0.953188 126.05C2.13517 122.58 4.35691 119.558 7.31665 117.395C10.2764 115.232 13.8305 114.032 17.4958 113.96C27.4903 113.767 35.697 122.15 35.697 132.161Z" fill="#17717F"/>
<path d="M254.844 132.161V207.958H266.12C268.527 207.958 270.835 207.002 272.537 205.3C274.239 203.598 275.196 201.289 275.196 198.882V164.323C275.161 160.772 275.922 157.259 277.422 154.041C278.922 150.823 281.123 147.982 283.864 145.725C286.723 143.431 288.806 140.311 289.83 136.791C290.854 133.271 290.77 129.521 289.588 126.05C288.406 122.58 286.184 119.558 283.224 117.395C280.264 115.232 276.71 114.032 273.045 113.96C263.034 113.767 254.844 122.15 254.844 132.161Z" fill="#17717F"/>
<path d="M51.3953 207.958L50.5923 217.556C50.3887 221.528 47.2315 222.617 45.6034 222.617C43.9752 222.617 40.1029 221.627 40.8125 217.859C41.522 214.091 45.0917 215.565 45.0917 211.748V207.936L51.3953 207.958Z" fill="#010101"/>
<path d="M239.145 207.958L239.959 217.579C240.162 221.55 243.319 222.639 244.947 222.639C246.576 222.639 250.448 221.649 249.733 217.881C249.018 214.113 245.459 215.587 245.459 211.77V207.958H239.145Z" fill="#010101"/>
<path d="M357.384 155.621H254.844V207.953H357.384V155.621Z" fill="#394450"/>
<path d="M357.384 155.621H254.844V162.386H357.384V155.621Z" fill="#1D2124"/>
<path d="M264.738 207.953V222.633H266.202L267.373 207.953H264.738Z" fill="#0D2135"/>
<path d="M347.483 207.953V222.633H346.019L344.854 207.953H347.483Z" fill="#0D2135"/>
<path d="M315.718 173.145C316.71 173.145 317.661 173.539 318.363 174.241C319.064 174.942 319.458 175.894 319.458 176.886C319.459 177.377 319.363 177.864 319.175 178.318C318.987 178.772 318.712 179.185 318.364 179.532C318.017 179.879 317.604 180.155 317.15 180.343C316.696 180.531 316.209 180.627 315.718 180.626H300.168C299.677 180.627 299.19 180.531 298.736 180.343C298.282 180.155 297.869 179.879 297.522 179.532C297.174 179.185 296.899 178.772 296.711 178.318C296.523 177.864 296.427 177.377 296.428 176.886V176.886C296.428 175.894 296.822 174.942 297.523 174.241C298.225 173.539 299.176 173.145 300.168 173.145" stroke="#0D2135" stroke-miterlimit="10"/>
<path d="M374.731 47.1229H312.086L312.713 44.169L322.048 0H364.764L374.104 44.169L374.731 47.1229Z" fill="#DE9885"/>
<path d="M347.676 58.2944H339.15C337.409 58.2944 335.998 59.7041 335.998 61.4433C335.998 63.1824 337.409 64.5924 339.15 64.5924H347.676C349.416 64.5924 350.827 63.1824 350.827 61.4433C350.827 59.7041 349.416 58.2944 347.676 58.2944Z" fill="#606E30"/>
<path d="M350.827 67.7498C350.827 68.163 350.745 68.5721 350.587 68.9539C350.429 69.3356 350.197 69.6826 349.905 69.9747C349.613 70.2669 349.266 70.4985 348.884 70.6566C348.503 70.8148 348.093 70.8962 347.68 70.8962H339.149C338.337 70.8623 337.569 70.5156 337.006 69.9288C336.443 69.342 336.129 68.5602 336.129 67.7471C336.129 66.934 336.443 66.1523 337.006 65.5654C337.569 64.9786 338.337 64.632 339.149 64.598H347.68C348.515 64.5995 349.316 64.9324 349.905 65.5233C350.495 66.1142 350.827 66.9149 350.827 67.7498Z" fill="#606E30"/>
<path d="M361.508 222.639H325.32C325.321 221.914 325.591 221.214 326.077 220.677C326.564 220.139 327.233 219.802 327.955 219.729L336.943 218.844C337.958 218.743 338.901 218.271 339.59 217.518C340.278 216.764 340.664 215.783 340.672 214.762L341.844 70.8962H344.979L346.151 214.762C346.159 215.783 346.545 216.764 347.233 217.518C347.922 218.271 348.864 218.743 349.88 218.844L358.873 219.729C359.595 219.802 360.264 220.139 360.751 220.677C361.238 221.214 361.508 221.914 361.508 222.639Z" fill="#606E30"/>
<path d="M344.975 70.8906H341.84L341.889 64.5924L341.944 58.2945L342.032 47.1229H344.782L344.876 58.2945L344.926 64.5924L344.975 70.8906Z" fill="#606E30"/>
<path d="M325.316 47.1229V64.5981" stroke="#0D2135" stroke-width="0.5" stroke-miterlimit="10"/>
<path d="M325.315 68.5309C326.402 68.5309 327.284 67.6492 327.284 66.5616C327.284 65.4741 326.402 64.5924 325.315 64.5924C324.227 64.5924 323.346 65.4741 323.346 66.5616C323.346 67.6492 324.227 68.5309 325.315 68.5309Z" fill="#2A67B2"/>
<path d="M374.731 47.1229H312.086L312.713 44.1691H374.104L374.731 47.1229Z" fill="#0D2135"/>
<path d="M135.357 148.684C137.808 150.579 140.829 151.587 143.927 151.545C144.451 151.567 144.959 151.728 145.401 152.011C145.843 152.294 146.201 152.689 146.44 153.156C147.967 156.006 149.731 158.722 151.715 161.275C151.827 161.417 151.888 161.592 151.888 161.773C151.888 161.954 151.827 162.129 151.715 162.271C151.647 162.355 151.562 162.424 151.466 162.474C151.37 162.525 151.265 162.555 151.156 162.563C151.048 162.572 150.94 162.558 150.837 162.522C150.735 162.487 150.64 162.432 150.56 162.359L144.878 157.128L142.216 157.469C142.061 157.488 141.914 157.546 141.787 157.638C141.661 157.729 141.56 157.851 141.493 157.992C141.427 158.133 141.397 158.289 141.407 158.445C141.417 158.6 141.466 158.751 141.55 158.882C142.026 159.61 142.449 160.371 142.815 161.16C142.857 161.25 142.879 161.348 142.881 161.448C142.882 161.547 142.863 161.646 142.824 161.737C142.785 161.829 142.728 161.912 142.655 161.98C142.583 162.048 142.497 162.1 142.403 162.133C142.271 162.179 142.129 162.184 141.995 162.15C141.86 162.116 141.738 162.043 141.644 161.941C140.543 160.764 136.897 156.886 134.157 155.643L129.328 153.525L135.357 148.684Z" fill="#955646"/>
<path d="M101.198 208.206L108.035 198.458L117.154 201.759C117.154 201.759 108.354 206.94 108.942 209.729L107.595 213.453L100.961 212.006L101.033 208.667" fill="#955646"/>
<path d="M101.199 208.206L97.8984 213.052C97.7042 213.338 97.5778 213.664 97.5288 214.007C97.4798 214.349 97.5095 214.699 97.6156 215.028C97.7216 215.357 97.9013 215.658 98.1409 215.907C98.3805 216.157 98.6738 216.348 98.9985 216.467L113.784 221.814C115.126 222.321 116.582 222.447 117.992 222.177C118.382 222.099 118.731 221.884 118.974 221.569C119.218 221.255 119.34 220.863 119.317 220.466C119.306 220.176 119.218 219.894 119.062 219.649C118.907 219.403 118.689 219.203 118.432 219.069C112.634 215.972 108.905 209.718 108.905 209.718C102.101 213.706 101.199 208.206 101.199 208.206Z" fill="#0D2135"/>
<path d="M108.938 209.702L107.678 207.793C107.355 207.946 107.071 208.168 106.845 208.445C106.619 208.721 106.458 209.044 106.373 209.391C106.287 209.738 106.28 210.099 106.352 210.448C106.423 210.798 106.572 211.127 106.787 211.412L108.938 209.702Z" fill="#0D2135"/>
<path d="M87.0664 214.289L90.1741 202.793H99.8771C99.8771 202.793 93.3591 210.659 94.8662 213.079V217.039L88.1335 217.936L87.0664 214.773" fill="#955646"/>
<path d="M74.246 143.057H113.85C135.302 143.057 134.477 161.374 131.578 175.395C128.679 189.416 125.45 202.793 125.45 202.793H90.1975L100.676 162.392H89.554C76.9633 162.392 71.3197 158.42 74.246 143.057Z" fill="#F3BA64"/>
<path d="M94.6582 82.8375C101.022 82.8375 106.182 77.6784 106.182 71.3141C106.182 64.9498 101.022 59.7904 94.6582 59.7904C88.2939 59.7904 83.1348 64.9498 83.1348 71.3141C83.1348 77.6784 88.2939 82.8375 94.6582 82.8375Z" fill="#955646"/>
<path d="M107.602 75.577C107.602 76.7926 105.951 76.5231 106.1 78.6133C106.188 82.3316 105.957 82.4636 102.189 83.7947C101.691 83.9842 101.25 84.2974 100.906 84.7044C100.563 85.1114 100.328 85.5989 100.225 86.1214C99.5597 88.6132 100.566 92.0952 100.687 92.4857C100.686 92.4985 100.686 92.5113 100.687 92.5241L94.4113 92.4857L85.1262 92.4306H84.5762C84.7742 92.1666 84.9667 91.8806 85.1262 91.6496C86.6444 89.5264 87.5467 87.7993 87.8327 86.1491C87.9728 85.341 87.9728 84.515 87.8327 83.7069C87.5247 81.9412 86.5785 80.0601 85.0054 77.6563L92.2989 75.0269L92.4751 74.9665L97.3925 73.1898L106.094 70.0544C106.099 70.3288 106.121 70.6027 106.16 70.8741C106.457 73.2504 107.602 74.4879 107.602 75.577Z" fill="#955646"/>
<path d="M96.6389 71.3197C96.7416 71.4113 96.8614 71.4815 96.9916 71.5262C97.1217 71.5709 97.2596 71.5891 97.3968 71.5799C97.5341 71.5707 97.6681 71.5342 97.7911 71.4725C97.9141 71.4108 98.0237 71.3251 98.1131 71.2206C98.3167 70.9455 98.3605 70.5604 98.6245 70.3404C99.0536 69.9884 99.7248 70.291 100.231 70.038C100.781 69.7355 100.781 68.8773 101.281 68.4483C101.782 68.0192 102.497 68.2008 103.14 68.2063C103.664 68.205 104.179 68.0773 104.643 67.834C105.106 67.5908 105.504 67.2392 105.803 66.8091C106.066 66.4266 106.252 65.9972 106.353 65.5441C106.533 64.7081 106.454 63.8372 106.127 63.0469C105.893 62.5027 105.55 62.0124 105.118 61.6065C104.687 61.2006 104.176 60.8876 103.619 60.6871C102.64 60.3901 101.54 60.5002 100.627 60.0436C99.8457 59.6531 99.3121 58.9049 98.6576 58.3274C98.2046 57.9074 97.6684 57.5874 97.0837 57.3884C96.499 57.1894 95.8789 57.1158 95.2638 57.1722C93.9382 57.3427 92.7995 58.2337 91.4849 58.4703C90.0107 58.7398 88.3496 58.1953 87.0844 58.9819C86.5407 59.3615 86.1018 59.8724 85.8084 60.4672C85.2584 61.4187 85.0768 62.6232 84.3672 63.4538C83.7677 64.1523 82.8051 64.4768 82.2221 65.1974C81.9246 65.627 81.7276 66.1182 81.6457 66.6343C81.5638 67.1504 81.5992 67.6783 81.7491 68.1789C81.9344 68.7668 82.074 69.3682 82.167 69.9776C82.1605 70.9186 81.9405 71.8456 81.5235 72.6892C81.3665 73.1048 81.3011 73.5496 81.3315 73.9928C81.3618 74.4361 81.4872 74.8675 81.6994 75.2579C82.0418 75.7691 82.3139 76.3242 82.5081 76.908C82.7171 78.1071 81.5951 79.1467 81.4631 80.3568C81.4246 80.7462 81.4885 81.1389 81.6487 81.4959C81.8088 81.8529 82.0596 82.162 82.376 82.3921C82.8907 82.6742 83.4215 82.9259 83.9657 83.1458C84.7743 83.5803 85.4509 84.3779 86.3695 84.3834C86.7011 84.3537 87.0231 84.2569 87.3162 84.099C87.6093 83.9411 87.8675 83.7254 88.0747 83.4649C88.4902 82.9457 88.9667 82.4783 89.4939 82.0731C89.8569 81.8421 90.2692 81.71 90.6488 81.523C92.2604 80.6759 93.564 78.3602 92.9645 76.644C92.1724 74.4438 91.7159 73.7562 91.9525 72.9201C92.189 72.0841 96.6663 71.3307 96.6663 71.3307L96.6389 71.3197Z" fill="#0D2135"/>
<path d="M94.658 75.9839C96.1799 75.9839 97.4139 74.7503 97.4139 73.2283C97.4139 71.7063 96.1799 70.4724 94.658 70.4724C93.136 70.4724 91.9023 71.7063 91.9023 73.2283C91.9023 74.7503 93.136 75.9839 94.658 75.9839Z" fill="#955646"/>
<path d="M104.372 92.4855H85.1309V143.057H104.372V92.4855Z" fill="#0D2135"/>
<path d="M100.687 92.4857H85.1367V91.6439C86.6549 89.5208 87.5572 87.7936 87.8432 86.1434H100.225C99.5482 88.6132 100.566 92.0951 100.687 92.4857Z" fill="#0D2135"/>
<path d="M81.2924 97.1942L93.8611 119.669L105.099 100.17L116.765 106.853L104.477 129.735C103.659 131.26 102.514 132.586 101.123 133.616C99.7322 134.646 98.1306 135.355 96.4331 135.693C94.7356 136.031 92.9842 135.988 91.3051 135.569C89.6259 135.149 88.0607 134.363 86.7215 133.266L70.8965 120.329" fill="#E7592F"/>
<path d="M86.9349 88.7399C101 120.406 92.6116 157.623 92.6116 157.623H70.8956C63.2608 122.854 68.3433 100.456 73.9923 96.204C79.6413 91.9521 86.9349 88.7399 86.9349 88.7399Z" fill="#E7592F"/>
<path d="M100.097 89.7849C99.1783 110.412 101.747 143.057 101.747 143.057L111.885 143.03L127.182 158.58L137.687 150.137L120.179 132.629C120.735 98.9599 115.839 93.5803 100.097 89.7849Z" fill="#E7592F"/>
<path d="M116.435 85.3901C116.476 89.2497 115.818 93.0847 114.493 96.71H109.543C108.218 93.0847 107.56 89.2497 107.601 85.3901H116.435Z" fill="#EFB7A8"/>
<path d="M116.363 95.0707C116.303 95.4997 116.655 95.9343 116.512 96.3413C116.429 96.5778 116.198 96.7373 116.088 96.9628C116.008 97.2357 115.98 97.5213 116.006 97.8045C115.981 98.1387 115.859 98.4584 115.656 98.725C115.453 98.9915 115.177 99.1933 114.862 99.3062C113.977 99.6128 113.241 100.241 112.799 101.066L111.589 103.888L105.588 100.445C105.588 100.445 107.893 96.666 108.536 95.8409C109.18 95.0159 108.762 93.9595 109.29 92.8484C109.38 92.6317 109.496 92.4267 109.636 92.2379L109.691 92.1719C110.141 91.6472 110.733 91.2649 111.396 91.0718V92.051C111.668 92.0792 111.941 92.0334 112.189 91.9189C112.843 91.6163 113.443 91.116 114.07 90.764C114.561 90.4378 115.131 90.248 115.72 90.2139C116.017 90.2059 116.306 90.3119 116.527 90.5104C116.748 90.709 116.884 90.9849 116.908 91.281C116.908 91.6715 116.6 92.0401 116.699 92.4141C116.786 92.6129 116.9 92.7982 117.04 92.9642C117.136 93.1314 117.187 93.3211 117.187 93.5142C117.187 93.7073 117.136 93.897 117.04 94.0643C116.858 94.3833 116.424 94.6471 116.363 95.0707Z" fill="#955646"/>
<path d="M87.0674 214.289L85.6318 219.96C85.5486 220.295 85.5423 220.645 85.6138 220.983C85.6853 221.32 85.8325 221.638 86.0444 221.91C86.2562 222.183 86.527 222.404 86.8367 222.557C87.1463 222.71 87.4867 222.791 87.832 222.793H103.558C104.992 222.806 106.402 222.426 107.634 221.693C107.975 221.487 108.23 221.165 108.353 220.786C108.475 220.407 108.456 219.996 108.299 219.63C108.188 219.363 108.009 219.128 107.781 218.95C107.553 218.772 107.282 218.656 106.996 218.612C100.489 217.677 94.8562 213.068 94.8562 213.068C89.7957 219.162 87.0674 214.289 87.0674 214.289Z" fill="#0D2135"/>
<path d="M94.8659 213.079L93.0342 211.715C92.7816 211.967 92.5885 212.273 92.4693 212.609C92.3501 212.945 92.3078 213.304 92.3452 213.659C92.3827 214.014 92.499 214.356 92.6858 214.66C92.8726 214.964 93.1251 215.223 93.4247 215.417L94.8659 213.079Z" fill="#0D2135"/>
<path d="M203.299 206.005L202.045 200.285L192.92 202.139C193.905 206.247 193.756 208.387 193.756 208.387L195.027 211.071L202.034 209.999L203.299 206.005Z" fill="white"/>
<path d="M183.893 219.399L198.584 215.736L200.042 213.535L200.801 215.186L206.153 213.849L203.299 205.983C198.046 207.199 198.964 210.725 193.755 208.365C191.956 217.375 184.564 212.545 183.893 219.399Z" fill="#0D2135"/>
<path d="M176.736 101.776L175.13 101.292C173.746 100.873 172.56 99.9688 171.791 98.7452L170.526 96.7319C170.295 96.367 169.977 96.0649 169.602 95.852L164.508 92.986C164.457 92.9603 164.401 92.9461 164.344 92.9444C164.287 92.9426 164.23 92.9535 164.178 92.9761C164.125 92.9986 164.079 93.0323 164.041 93.0749C164.003 93.1175 163.975 93.168 163.958 93.2226C163.874 93.4057 163.849 93.611 163.889 93.8087C163.928 94.0064 164.03 94.1863 164.178 94.3227C165.101 95.1174 166.117 95.7972 167.203 96.347C167.203 96.347 162.418 94.5318 160.531 93.7837C158.645 93.0356 158.023 94.3064 158.023 94.3064C156.758 94.0203 156.582 95.2907 157.225 95.8738C156.703 96.7319 158.876 99.0643 158.876 99.0643L161.626 101.699C162.429 102.476 163.42 103.029 164.503 103.305L171.279 105.049L174.86 106.902" fill="#EFB7A8"/>
<path d="M232.847 73.3163C232.634 75.545 231.772 77.6621 230.367 79.4053C229.685 80.2498 228.885 80.9909 227.99 81.6055C226.187 82.8732 224.057 83.5965 221.854 83.6897C219.652 83.7828 217.468 83.242 215.564 82.1311C213.66 81.0202 212.114 79.3862 211.111 77.4229C210.108 75.4597 209.689 73.2498 209.905 71.0557L209.955 70.6321C209.993 70.3406 210.042 70.0544 210.108 69.7684C210.42 68.2791 211.03 66.8682 211.901 65.621C213.403 63.4498 215.605 61.8602 218.138 61.1182C220.671 60.3763 223.382 60.5271 225.818 61.5453C225.851 61.5533 225.882 61.5662 225.911 61.5837C228.166 62.546 230.055 64.2031 231.302 66.3134C232.55 68.4236 233.091 70.877 232.847 73.3163Z" fill="#EFB7A8"/>
<path d="M213.303 92.6946C213.303 92.6946 216.334 85.544 212.671 83.8664C211.906 83.5089 211.29 83.2227 210.806 82.9532H210.767C208.985 81.9631 208.93 81.2425 209.282 78.3492C209.282 78.2887 209.282 78.2337 209.282 78.1787C209.345 77.7888 209.299 77.3891 209.15 77.0235C209.028 76.7664 208.858 76.5351 208.65 76.3416C208.325 76.0061 208.006 75.7311 208.061 75.181C208.171 74.0809 209.414 72.9807 209.931 70.6595C209.999 70.3749 210.051 70.0866 210.085 69.796L216.928 73.0466L218.331 73.7125L218.435 73.7619L223.16 76.0061L223.501 76.1657L230.344 79.4163C229.763 80.1714 229.318 81.0222 229.029 81.9302C227.929 85.4945 229.684 89.1854 231.581 92.6672L213.303 92.6946Z" fill="#EFB7A8"/>
<path d="M232.848 73.3165C232.634 75.5452 231.772 77.6622 230.367 79.4054C229.786 80.1606 229.341 81.0114 229.052 81.9193L227.991 81.6223L226.291 81.1711C223.733 80.5 223.117 78.4815 223.541 76.1548C223.616 75.7233 223.719 75.2969 223.849 74.8785L218.717 72.9313L218.618 73.1515L218.365 73.7016L218.183 74.0975L216.742 73.509L216.962 73.0358L219.856 66.7322C217.157 67.127 214.402 66.7455 211.913 65.6321C211.528 65.4616 211.313 65.3407 211.313 65.3407C210.427 64.9866 209.651 64.404 209.063 63.6521C208.717 63.2201 208.476 62.7133 208.359 62.1723C208.303 61.9024 208.302 61.6242 208.356 61.3539C208.41 61.0836 208.518 60.8269 208.673 60.5992C208.901 60.3301 209.189 60.1182 209.514 59.9807C209.839 59.8431 210.191 59.7837 210.543 59.8072C211.247 59.8628 211.938 60.0298 212.589 60.3021C212.309 60.1639 212.092 59.9248 211.982 59.6328C211.872 59.3408 211.877 59.0178 211.995 58.7291C212.127 58.4462 212.329 58.2011 212.581 58.0165C212.832 57.832 213.127 57.7139 213.436 57.673C214.056 57.5942 214.685 57.6542 215.279 57.8489C216.111 58.0859 216.914 58.4162 217.672 58.8336C217.522 58.7303 217.398 58.5939 217.31 58.4347C217.222 58.2755 217.172 58.0981 217.164 57.9163C217.156 57.7346 217.19 57.5535 217.264 57.3872C217.338 57.221 217.449 57.0738 217.589 56.9578C217.834 56.8199 218.105 56.7359 218.385 56.7112C218.665 56.6866 218.947 56.722 219.212 56.8149C221.516 57.365 223.024 59.6256 224.894 60.9787C224.858 60.8435 224.858 60.7014 224.894 60.5662C224.986 60.3452 225.157 60.1667 225.374 60.065C225.59 59.9633 225.837 59.9458 226.065 60.0161C226.514 60.1839 226.898 60.4878 227.165 60.8852C227.683 61.5406 228.1 62.2692 228.403 63.047C228.375 62.9651 228.364 62.8783 228.37 62.7919C228.376 62.7055 228.4 62.6213 228.439 62.5443C228.479 62.4672 228.534 62.399 228.6 62.3436C228.667 62.2882 228.744 62.2469 228.827 62.222C228.987 62.1882 229.154 62.1985 229.308 62.2518C229.463 62.305 229.601 62.3992 229.707 62.5244C230.29 63.1184 230.378 64.0262 230.735 64.7743C230.669 64.5432 230.956 64.3782 231.192 64.4222C231.306 64.4568 231.411 64.5153 231.5 64.5941C231.589 64.6728 231.661 64.7701 231.709 64.8787C231.925 65.3192 232.072 65.7905 232.144 66.2759C232.386 67.53 232.622 68.9711 232.743 70.2418C232.919 71.257 232.954 72.2916 232.848 73.3165Z" fill="#E7592F"/>
<path d="M221.186 76.8476C222.708 76.8476 223.941 75.6137 223.941 74.0917C223.941 72.5697 222.708 71.3361 221.186 71.3361C219.664 71.3361 218.43 72.5697 218.43 74.0917C218.43 75.6137 219.664 76.8476 221.186 76.8476Z" fill="#EFB7A8"/>
<path opacity="0.4" d="M218.006 81.2427L217.396 83.0084L217.352 83.1459C217.241 83.4676 217.063 83.7621 216.829 84.0099C216.596 84.2578 216.313 84.4534 215.998 84.5839C215.684 84.7143 215.345 84.7767 215.005 84.7668C214.665 84.7569 214.331 84.6749 214.024 84.5264L210.806 82.9643H210.768C208.986 81.9742 208.931 81.2536 209.283 78.3603C209.283 78.2998 209.283 78.2448 209.283 78.1898C209.346 77.7999 209.3 77.4002 209.151 77.0346L211.054 77.3814L212.94 77.7278C213.437 77.8166 213.949 77.7371 214.396 77.502C214.842 77.2668 215.197 76.8896 215.405 76.4298L216.708 73.531L218.15 74.1195L216.917 77.6728C216.301 79.4934 218.006 81.2427 218.006 81.2427Z" fill="#E7592F"/>
<path d="M224.778 89.7849H213.777C211.227 89.7841 208.745 90.6103 206.703 92.1393L188.887 105.511L175.548 101.385L170.873 111.286L179.971 115.984C182.257 117.165 184.765 117.853 187.334 118.004C189.903 118.154 192.474 117.764 194.883 116.859C198.128 115.643 201.159 114.614 201.005 115.093C197.743 125.214 193.535 136.963 196.055 146.215H239.784C242.809 136.039 240.884 129.713 240.884 129.713C244.322 125.725 244.047 121.275 243.909 117.997C243.772 114.719 242.809 100.56 242.809 100.56C241.709 89.6968 233.458 89.7849 230.158 89.7849H224.778Z" fill="#918675"/>
<path d="M226.841 146.215C224.058 153.992 220.554 162.392 209.636 162.392H195.884L202.325 200.895C192.975 208.69 182.018 204.955 182.018 204.955L174.476 160.4C174.182 158.658 174.271 156.872 174.738 155.167C175.205 153.462 176.038 151.879 177.179 150.529C178.32 149.179 179.741 148.094 181.345 147.35C182.948 146.606 184.694 146.22 186.462 146.22L226.841 146.215Z" fill="#6FCDDE"/>
<path d="M239.767 146.215C236.984 153.992 233.48 162.392 222.561 162.392H208.81L215.251 200.895C205.724 207.193 194.943 204.955 194.943 204.955L187.402 160.4C187.108 158.658 187.197 156.872 187.664 155.167C188.13 153.462 188.963 151.879 190.104 150.529C191.245 149.179 192.667 148.094 194.271 147.35C195.874 146.606 197.62 146.22 199.388 146.22L239.767 146.215Z" fill="#A2DCEA"/>
<path d="M207.595 117.997H175.808C174.295 117.997 173.068 119.223 173.068 120.736V143.475C173.068 144.988 174.295 146.215 175.808 146.215H207.595C209.108 146.215 210.334 144.988 210.334 143.475V120.736C210.334 119.223 209.108 117.997 207.595 117.997Z" fill="white"/>
<path d="M217.203 143.805H183.898C183.233 143.805 182.693 144.344 182.693 145.007C182.693 145.671 183.233 146.209 183.898 146.209H217.203C217.869 146.209 218.408 145.671 218.408 145.007C218.408 144.344 217.869 143.805 217.203 143.805Z" fill="white"/>
<path d="M191.703 135.313C193.474 135.313 194.91 133.877 194.91 132.106C194.91 130.335 193.474 128.899 191.703 128.899C189.932 128.899 188.496 130.335 188.496 132.106C188.496 133.877 189.932 135.313 191.703 135.313Z" fill="#A2DCEA"/>
<path d="M216.539 206.627L215.28 200.906L206.154 202.76C207.139 206.869 206.99 209.009 206.99 209.009L208.261 211.693L215.269 210.62L216.539 206.627Z" fill="white"/>
<path d="M197.127 220.048L211.819 216.385L213.276 214.185L214.036 215.835L219.388 214.504L216.538 206.632C211.28 207.848 212.198 211.374 206.989 209.014C205.185 218.024 197.798 213.194 197.127 220.048Z" fill="#0D2135"/>
<path d="M229.909 138.806L227.907 141.226C227.435 141.937 227.082 142.722 226.862 143.547C226.654 144.356 226.313 145.125 225.856 145.824C225.62 146.168 225.304 146.448 224.935 146.64C224.565 146.831 224.154 146.929 223.738 146.924C223.331 146.897 222.896 146.737 222.533 146.924C222.401 146.985 222.291 147.084 222.159 147.139C221.686 147.331 221.169 146.88 220.669 146.963C220.541 146.992 220.416 147.033 220.295 147.084C220.072 147.17 219.834 147.212 219.595 147.205C219.356 147.199 219.121 147.144 218.903 147.045C218.464 147.324 217.948 147.456 217.429 147.419C217.116 147.384 216.823 147.245 216.597 147.025C216.371 146.805 216.224 146.516 216.18 146.204H217.489C217.946 144.795 218.589 143.222 218.237 141.776L217.236 143.778H216.158L216.433 142.183C216.549 141.643 216.807 141.144 217.18 140.736C217.553 140.329 218.028 140.029 218.556 139.867C220.089 139.297 221.426 138.299 222.407 136.99L224.118 134.944L229.909 138.806Z" fill="#EFB7A8"/>
</svg>
