<svg width="2648" height="450" viewBox="0 0 2648 450" fill="none" xmlns="http://www.w3.org/2000/svg">
<g clip-path="url(#clip0_7713_20358)">
<rect width="2648" height="450" fill="#FDE2BC"/>
<mask id="mask0_7713_20358" style="mask-type:alpha" maskUnits="userSpaceOnUse" x="1406" y="0" width="700" height="450">
<rect x="1406" width="700" height="450" fill="#D9D9D9"/>
</mask>
<g mask="url(#mask0_7713_20358)">
<path d="M1838.37 209.238H1828.55V285.649H1838.37V209.238Z" fill="white"/>
<path d="M1936.6 381.678H1926.79V458.09H1936.6V381.678Z" fill="white"/>
<path d="M1919.88 123.28H1910.07V199.692H1919.88V123.28Z" fill="white"/>
<path d="M2060.91 36.7959H2051.1V113.207H2060.91V36.7959Z" fill="white"/>
<path d="M1812.39 130.238H1802.97V199.693H1812.39V130.238Z" fill="#FBF8F6"/>
<path d="M1997.88 216.195H1988.45V285.65H1997.88V216.195Z" fill="#FBF8F6"/>
<path d="M1802.97 130.238H1793.55V199.693H1802.97V130.238Z" fill="#E2F0D9"/>
<path d="M1793.55 130.238H1784.13V199.693H1793.55V130.238Z" fill="#F6F9FD"/>
<path d="M1784.13 130.238H1774.7V199.693H1784.13V130.238Z" fill="#F9B09D"/>
<path d="M1774.7 141.059H1765.28V199.411H1774.7V141.059Z" fill="#5B2E91"/>
<path d="M1845.13 130.238H1831.07V199.693H1845.13V130.238Z" fill="#D3E175"/>
<path d="M1896 130.238H1881.94V199.693H1896V130.238Z" fill="#E7592F"/>
<path d="M1910.05 123.28H1895.99V199.692H1910.05V123.28Z" fill="#778B8C"/>
<path d="M1863.81 130.238H1845.14V199.693H1863.81V130.238Z" fill="#FBF8F6"/>
<path d="M1781.97 219.032L1768.42 215.258L1749.78 282.164L1763.32 285.938L1781.97 219.032Z" fill="white"/>
<path d="M1825.06 305.252L1807.07 300.24L1788.43 367.146L1806.41 372.159L1825.06 305.252Z" fill="white"/>
<path d="M1834.82 305.159L1825.82 302.653L1807.18 369.559L1816.18 372.065L1834.82 305.159Z" fill="#F2E8F2"/>
<path d="M1532.56 199.645L1550.55 194.633L1531.91 127.727L1513.92 132.739L1532.56 199.645Z" fill="#1B4481"/>
<path d="M1932.05 227.286H1922.63V285.637H1932.05V227.286Z" fill="white"/>
<path d="M1946.19 227.286H1932.12V285.637H1946.19V227.286Z" fill="#E1DAD0"/>
<path d="M1788.76 313.279H1774.7V371.63H1788.76V313.279Z" fill="#B2A797"/>
<path d="M1808.16 227.286H1794.1V285.637H1808.16V227.286Z" fill="#B2A797"/>
<path d="M1964.86 227.286H1946.19V285.637H1964.86V227.286Z" fill="#F2E8F2"/>
<path d="M1831.07 141.059H1812.39V199.411H1831.07V141.059Z" fill="#D9DEBB"/>
<path d="M1974.39 238.45H1964.97V285.636H1974.39V238.45Z" fill="white"/>
<path d="M1928.19 324.677H1918.77V371.864H1928.19V324.677Z" fill="#F9B09D"/>
<path d="M1937.62 324.567H1928.2V371.754H1937.62V324.567Z" fill="#92B183"/>
<path d="M1847.79 238.45H1838.37V285.636H1847.79V238.45Z" fill="#92B183"/>
<path d="M1988.45 238.45H1974.39V285.636H1988.45V238.45Z" fill="#F3BA63"/>
<path d="M2058.82 238.45H2040.14V285.636H2058.82V238.45Z" fill="white"/>
<path d="M1502.53 112.668L1520.57 107.835L1508.35 62.2565L1490.32 67.0895L1502.53 112.668Z" fill="white"/>
<path d="M1490.32 313.415H1480.89V371.766H1490.32V313.415Z" fill="#1C2019"/>
<path d="M1541.3 313.415H1531.87V371.766H1541.3V313.415Z" fill="#5C6A6C"/>
<path d="M1550.72 313.415H1541.29V371.766H1550.72V313.415Z" fill="#915B24"/>
<path d="M1504.38 313.415H1490.32V371.766H1504.38V313.415Z" fill="#2A67B2"/>
<path d="M1794.09 227.286H1780.03V285.637H1794.09V227.286Z" fill="#2A67B2"/>
<path d="M1522.35 313.415H1503.68V371.766H1522.35V313.415Z" fill="#EFB7A8"/>
<path d="M1531.87 324.579H1522.45V371.767H1531.87V324.579Z" fill="#FCE9E4"/>
<path d="M1750.12 238.45H1740.69V285.636H1750.12V238.45Z" fill="#FCE9E4"/>
<path d="M1728.59 152.236H1719.17V199.423H1728.59V152.236Z" fill="#FCE9E4"/>
<path d="M1578.84 324.579H1564.78V371.767H1578.84V324.579Z" fill="#F7F9E2"/>
<path d="M1560.07 238.45H1546.01V285.636H1560.07V238.45Z" fill="#F7F9E2"/>
<path d="M1504.38 152.333H1490.32V199.52H1504.38V152.333Z" fill="#F7F9E2"/>
<path d="M1490.31 152.333H1476.25V199.52H1490.31V152.333Z" fill="#66694F"/>
<path d="M1564.78 324.973H1550.72V372.159H1564.78V324.973Z" fill="#B24226"/>
<path d="M1574.13 238.45H1560.07V285.636H1574.13V238.45Z" fill="#B24226"/>
<path d="M1597.51 324.579H1578.84V371.767H1597.51V324.579Z" fill="white"/>
<path d="M1480.88 295.367H1462.21V371.778H1480.88V295.367Z" fill="white"/>
<path d="M1929.73 141.059H1920.31V199.411H1929.73V141.059Z" fill="#E2D2E7"/>
<path d="M1939.16 141.059H1929.73V199.411H1939.16V141.059Z" fill="#F9F7FB"/>
<path d="M1966.91 141.059H1957.49V199.411H1966.91V141.059Z" fill="#FCD59D"/>
<path d="M1976.75 141.059H1967.33V199.411H1976.75V141.059Z" fill="#5B6A6B"/>
<path d="M2047.08 141.059H2033.02V199.411H2047.08V141.059Z" fill="white"/>
<path d="M2065.75 141.059H2047.07V199.411H2065.75V141.059Z" fill="#E3EEEF"/>
<path d="M1995.37 141.329H1976.7V199.681H1995.37V141.329Z" fill="white"/>
<path d="M2014.2 123.011H1995.52V199.68H2014.2V123.011Z" fill="#1B4481"/>
<path d="M2033 123.28H2014.33V199.692H2033V123.28Z" fill="#905A24"/>
<path d="M1882.31 123.28H1872.89V199.692H1882.31V123.28Z" fill="#E6F5F9"/>
<path d="M1872.89 123.28H1863.47V199.692H1872.89V123.28Z" fill="#2D1C17"/>
<path d="M1948.32 123.28H1938.9V199.692H1948.32V123.28Z" fill="#394450"/>
<path d="M1957.74 123.28H1948.32V199.692H1957.74V123.28Z" fill="#8E6EB1"/>
<path d="M2030.71 209.238H2021.28V285.649H2030.71V209.238Z" fill="#2D1C17"/>
<path d="M2040.05 209.238H2030.62V285.649H2040.05V209.238Z" fill="#394450"/>
<path d="M1931.71 54.8438H1921.21V113.195H1931.71V54.8438Z" fill="#6FA9DC"/>
<path d="M1767.66 54.8438H1757.16V113.195H1767.66V54.8438Z" fill="#6FA9DC"/>
<path d="M1874.74 43.7402H1860.68V113.196H1874.74V43.7402Z" fill="#8E6EB1"/>
<path d="M1893.42 43.7402H1874.74V113.196H1893.42V43.7402Z" fill="white"/>
<path d="M1781.73 54.8438H1767.67V113.195H1781.73V54.8438Z" fill="#EBEED8"/>
<path d="M1907.49 54.8438H1893.43V113.195H1907.49V54.8438Z" fill="#1D2124"/>
<path d="M1921.55 43.7402H1907.49V113.196H1921.55V43.7402Z" fill="#4A3E58"/>
<path d="M1940.79 36.7959H1931.37V113.207H1940.79V36.7959Z" fill="white"/>
<path d="M1950.21 36.7959H1940.79V113.207H1950.21V36.7959Z" fill="#F2E8F2"/>
<path d="M1961.79 36.7959H1950.21V113.207H1961.79V36.7959Z" fill="#CEDFDF"/>
<path d="M1969.68 295.367H1960.26V371.778H1969.68V295.367Z" fill="#0D2135"/>
<path d="M1979.1 295.367H1969.68V371.778H1979.1V295.367Z" fill="#F3BA63"/>
<path d="M1988.45 295.367H1979.03V371.778H1988.45V295.367Z" fill="#EBEED8"/>
<path d="M1997.88 295.367H1988.45V371.778H1997.88V295.367Z" fill="#97ACAF"/>
<path d="M1774.59 295.367H1765.17V371.778H1774.59V295.367Z" fill="#0D2135"/>
<path d="M1758.4 123.011H1748.97V199.423H1758.4V123.011Z" fill="#394450"/>
<path d="M1513.03 388.512H1503.6V457.967H1513.03V388.512Z" fill="#7854A2"/>
<path d="M1503.61 388.512H1494.18V457.967H1503.61V388.512Z" fill="#E0EEFA"/>
<path d="M1494.18 388.512H1484.76V457.967H1494.18V388.512Z" fill="white"/>
<path d="M1740.68 209.238H1726.62V285.649H1740.68V209.238Z" fill="white"/>
<path d="M1857.73 302.348H1839.05V371.803H1857.73V302.348Z" fill="#D3E175"/>
<path d="M1828.55 216.195H1808.16V285.65H1828.55V216.195Z" fill="#D3E175"/>
<path d="M1748.99 129.968H1728.6V199.423H1748.99V129.968Z" fill="#D3E175"/>
<path d="M2035.32 313.415H2016.65V371.766H2035.32V313.415Z" fill="#F9D4C8"/>
<path d="M2007.3 324.615H1997.88V371.802H2007.3V324.615Z" fill="#5B6A6B"/>
<path d="M2007.3 238.45H1997.88V285.636H2007.3V238.45Z" fill="#5B6A6B"/>
<path d="M1839.05 324.615H1829.63V371.802H1839.05V324.615Z" fill="#5B6A6B"/>
<path d="M1960.39 324.615H1950.97V371.802H1960.39V324.615Z" fill="#5B6A6B"/>
<path d="M1765.25 324.457H1755.83V371.644H1765.25V324.457Z" fill="#5B6A6B"/>
<path d="M1951.68 324.677H1937.62V371.864H1951.68V324.677Z" fill="#4684C4"/>
<path d="M1755.69 324.457H1741.62V371.644H1755.69V324.457Z" fill="#4684C4"/>
<path d="M1471.88 227.286H1462.46V285.637H1471.88V227.286Z" fill="white"/>
<path d="M1485.94 227.286H1471.88V285.637H1485.94V227.286Z" fill="white"/>
<path d="M1504.62 227.286H1485.95V285.637H1504.62V227.286Z" fill="#F9D4C8"/>
<path d="M1514.05 238.45H1504.62V285.636H1514.05V238.45Z" fill="white"/>
<path d="M1560.25 152.236H1550.83V199.423H1560.25V152.236Z" fill="#FCD59D"/>
<path d="M1588.33 152.236H1578.91V199.423H1588.33V152.236Z" fill="#F9FAF0"/>
<path d="M1569.49 152.236H1560.07V199.423H1569.49V152.236Z" fill="#E1D7EA"/>
<path d="M1846.6 66.0073H1837.18V113.195H1846.6V66.0073Z" fill="#E1D7EA"/>
<path d="M1597.76 152.236H1588.34V199.423H1597.76V152.236Z" fill="#E1D7EA"/>
<path d="M1527.61 238.45H1513.55V285.636H1527.61V238.45Z" fill="#4684C4"/>
<path d="M1719.16 152.236H1705.1V199.423H1719.16V152.236Z" fill="#4684C4"/>
<path d="M1546.3 238.45H1527.63V285.636H1546.3V238.45Z" fill="white"/>
<path d="M1480.88 410.781H1462.21V457.967H1480.88V410.781Z" fill="#E0EEFA"/>
<path d="M2079.18 36.7959H2060.51V113.207H2079.18V36.7959Z" fill="#57697B"/>
<path d="M2058.81 295.367H2044.75V371.778H2058.81V295.367Z" fill="#1B4481"/>
<path d="M2021.36 209.238H2007.3V285.649H2021.36V209.238Z" fill="#1B4481"/>
<path d="M2044.76 313.415H2035.34V371.766H2044.76V313.415Z" fill="#97ACAF"/>
<path d="M1867.15 313.5H1857.72V371.852H1867.15V313.5Z" fill="white"/>
<path d="M1578.91 141.059H1569.49V199.411H1578.91V141.059Z" fill="white"/>
<path d="M2016.65 313.5H2007.22V371.852H2016.65V313.5Z" fill="white"/>
<path d="M2008.76 54.8438H1999.34V113.195H2008.76V54.8438Z" fill="white"/>
<path d="M1999.34 54.8438H1985.28V113.195H1999.34V54.8438Z" fill="#B2A797"/>
<path d="M2018.18 66.0073H2008.76V113.195H2018.18V66.0073Z" fill="#F9B09D"/>
<path d="M2027.6 65.8984H2018.18V113.085H2027.6V65.8984Z" fill="#92B183"/>
<path d="M1971.22 65.8984H1961.79V113.085H1971.22V65.8984Z" fill="#92B183"/>
<path d="M2051.1 66.0073H2041.68V113.195H2051.1V66.0073Z" fill="#5B6A6B"/>
<path d="M2041.66 66.0073H2027.6V113.195H2041.66V66.0073Z" fill="#4684C4"/>
<path d="M1985.28 66.0073H1971.21V113.195H1985.28V66.0073Z" fill="#CEDFDF"/>
<path d="M1605.06 36.7959H1591V113.207H1605.06V36.7959Z" fill="#7E9039"/>
<path d="M1480.88 43.7402H1462.21V113.196H1480.88V43.7402Z" fill="white"/>
<path d="M1823.11 54.8438H1813.69V113.195H1823.11V54.8438Z" fill="#F58B6E"/>
<path d="M1837.17 54.8438H1823.11V113.195H1837.17V54.8438Z" fill="white"/>
<path d="M1813.67 36.7959H1795V113.207H1813.67V36.7959Z" fill="#1B4481"/>
<path d="M1756.27 36.7959H1737.6V113.207H1756.27V36.7959Z" fill="#1B4481"/>
<path d="M1490.32 36.7959H1480.89V113.207H1490.32V36.7959Z" fill="#E0EEFA"/>
<path d="M1476.59 123.108H1462.21V199.52H1476.59V123.108Z" fill="#BC792A"/>
<path d="M1513.53 123.108H1504.11V199.52H1513.53V123.108Z" fill="#7854A2"/>
<path d="M1616.65 123.108H1597.76V199.52H1616.65V123.108Z" fill="#B295C6"/>
<path d="M1626.08 123.108H1616.65V199.52H1626.08V123.108Z" fill="#FCD59D"/>
<path d="M1667.97 123.108H1658.55V199.52H1667.97V123.108Z" fill="#7F2118"/>
<path d="M1677.39 123.108H1667.97V199.52H1677.39V123.108Z" fill="#1D2124"/>
<path d="M1686.82 123.108H1677.39V199.52H1686.82V123.108Z" fill="#738F65"/>
<path d="M1696.24 123.108H1686.82V199.52H1696.24V123.108Z" fill="#394633"/>
<path d="M1705.1 123.108H1695.67V199.52H1705.1V123.108Z" fill="#905A24"/>
<path d="M1726.58 209.238H1717.16V285.649H1726.58V209.238Z" fill="#E0EEFA"/>
<path d="M1984.49 399.616H1936.3V457.967H1984.49V399.616Z" fill="#F3BA64"/>
<path d="M2056.01 389.125H1999.15V457.98H2056.01V389.125Z" fill="#394450"/>
<path d="M1926.8 410.781H1889.12V458.078H1926.8V410.781Z" fill="#F9D4C8"/>
<path d="M1835.59 389.125H1779.3V458.09H1835.59V389.125Z" fill="#394450"/>
<path d="M1835.59 399.616H1779.3V445.416H1835.59V399.616Z" fill="#4684C4"/>
<path d="M1888.26 410.781H1850.58V458.078H1888.26V410.781Z" fill="#E7592F"/>
<path d="M1778.55 410.437H1739.32V457.967H1778.55V410.437Z" fill="#E3EEEF"/>
<path d="M1739.32 381.801H1680.9V457.967H1739.32V381.801Z" fill="#E7592F"/>
<path d="M1662.23 394.818H1610.99V457.967H1662.23V394.818Z" fill="#D3E175"/>
<path d="M1557.75 399.616H1513.03V458.09H1557.75V399.616Z" fill="#1C2019"/>
<path d="M1609.32 381.801H1567.09V457.967H1609.32V381.801Z" fill="#C1DDF4"/>
<path d="M1902.33 209.238H1847.79V285.649H1902.33V209.238Z" fill="#2A67B2"/>
<path d="M1918.78 313.5H1875.05V371.852H1918.78V313.5Z" fill="#B24226"/>
<path d="M2079 372H1462V382H2079V372Z" fill="white"/>
<path d="M2079 286H1462V295H2079V286Z" fill="white"/>
<path d="M2079 199H1462V209H2079V199Z" fill="white"/>
<path d="M2079 113H1462V123H2079V113Z" fill="white"/>
<path d="M2079 27H1462V37H2079V27Z" fill="white"/>
<path d="M1604.01 2.17188V647.77" stroke="#0D2135" stroke-width="2" stroke-miterlimit="10"/>
<path d="M1698.54 2.17188V647.77" stroke="#0D2135" stroke-width="2" stroke-miterlimit="10"/>
<path d="M1604.01 424.007H1698.54" stroke="#0D2135" stroke-width="2" stroke-miterlimit="10"/>
<path d="M1604.01 359.386H1698.54" stroke="#0D2135" stroke-width="2" stroke-miterlimit="10"/>
<path d="M1604.01 294.752H1698.54" stroke="#0D2135" stroke-width="2" stroke-miterlimit="10"/>
<path d="M1604.01 230.131H1698.54" stroke="#0D2135" stroke-width="2" stroke-miterlimit="10"/>
<path d="M1604.01 165.498H1698.54" stroke="#0D2135" stroke-width="2" stroke-miterlimit="10"/>
<path d="M1604.01 100.877H1698.54" stroke="#0D2135" stroke-width="2" stroke-miterlimit="10"/>
<path d="M1604.01 36.2549H1698.54" stroke="#0D2135" stroke-width="2" stroke-miterlimit="10"/>
<path d="M1530.13 91.4364L1562.82 111.105L1536.7 154.536L1504 134.867L1530.13 91.4364Z" fill="#0D2135"/>
<path d="M1550.43 131.956C1550.21 132.177 1549.94 132.342 1549.64 132.434C1549.34 132.526 1549.03 132.543 1548.72 132.483C1548.11 132.348 1547.55 132.051 1547.1 131.624L1542.48 127.318C1541.85 126.729 1541.35 126.02 1541 125.232L1538.62 119.797C1538.54 119.597 1538.41 119.417 1538.26 119.267C1538.1 119.116 1537.92 118.999 1537.71 118.922C1537.51 118.845 1537.29 118.811 1537.08 118.82C1536.86 118.829 1536.65 118.881 1536.45 118.975C1536.1 119.141 1535.81 119.43 1535.66 119.789C1535.5 120.148 1535.48 120.551 1535.59 120.926L1537.36 126.557C1537.61 127.36 1537.58 128.225 1537.29 129.011L1536.88 130.103C1536.61 130.83 1536.58 131.625 1536.78 132.373L1537.75 135.931L1537.09 137.857C1536.92 138.354 1536.86 138.881 1536.91 139.404C1536.96 139.927 1537.12 140.432 1537.38 140.887L1539.75 145.035C1540.27 145.934 1540.97 146.719 1541.8 147.341L1552.84 155.536L1578.79 181.498C1583.22 185.943 1588.8 189.077 1594.9 190.552L1603.24 192.589V166.285L1566.54 146.09C1564.35 144.756 1562.64 142.781 1561.63 140.434C1560.94 138.544 1560.62 136.545 1560.01 134.631C1559.49 132.689 1558.36 130.967 1556.78 129.723L1553.47 126.962" fill="#DE9885"/>
<path d="M1697.02 133.491C1696.3 133.007 1696.1 132.025 1696.58 131.297C1697.07 130.569 1698.05 130.371 1698.78 130.855L1702.02 133.009C1702.74 133.493 1702.94 134.475 1702.46 135.203C1701.97 135.931 1700.99 136.129 1700.26 135.645L1697.02 133.491Z" fill="#DE9885"/>
<path d="M1695.77 136.442C1695.04 135.958 1694.85 134.975 1695.33 134.247C1695.81 133.519 1696.8 133.322 1697.53 133.806L1700.76 135.959C1701.49 136.443 1701.69 137.425 1701.21 138.153C1700.72 138.881 1699.74 139.079 1699.01 138.595L1695.77 136.442Z" fill="#DE9885"/>
<path d="M1694.54 139.102C1693.81 138.618 1693.61 137.636 1694.1 136.908C1694.58 136.18 1695.56 135.982 1696.29 136.466L1699.53 138.62C1700.26 139.104 1700.46 140.086 1699.97 140.814C1699.49 141.542 1698.51 141.74 1697.78 141.256L1694.54 139.102Z" fill="#DE9885"/>
<path d="M1730.99 213.397L1708.39 146.728L1706.59 133.33C1706.5 132.541 1706.2 131.788 1705.74 131.144C1705.27 130.5 1704.65 129.986 1703.93 129.649L1696.84 126.324V130.115L1700.52 133.182C1696.03 140.139 1696.84 146.065 1696.84 146.065L1698.27 178.381L1730.99 213.397Z" fill="#DE9885"/>
<path d="M1667.01 151.414C1671.05 152.36 1675.26 152.309 1679.28 151.267C1683.33 150.21 1687.07 148.185 1690.17 145.366L1690.63 144.936C1695.09 140.643 1697.86 134.883 1698.43 128.714C1699 122.544 1697.32 116.377 1693.71 111.343C1690.96 107.541 1687.23 104.563 1682.92 102.73C1678.6 100.896 1673.87 100.278 1669.23 100.943C1664.59 101.608 1660.22 103.53 1656.59 106.501C1652.96 109.472 1650.22 113.378 1648.65 117.797C1648.43 118.396 1648.23 119.006 1648.07 119.625C1647.98 119.931 1647.91 120.238 1647.83 120.557C1646.3 127.191 1647.46 134.16 1651.06 139.941C1654.65 145.723 1660.38 149.847 1667.01 151.414Z" fill="#DE9885"/>
<path d="M1645.5 164.762C1639.82 164.762 1684.16 176.749 1684.16 176.749C1678.03 164.173 1677.86 159.13 1682.46 153.303C1684.85 150.492 1687.41 147.84 1690.15 145.365L1690.6 144.935L1672.2 132.998L1672.05 132.887L1661.88 126.323L1660.65 125.525L1648.67 117.771C1648.51 118.392 1648.31 119.002 1648.08 119.6C1646.26 124.606 1643.17 126.703 1642.62 129.071C1642.02 131.709 1645.72 131.954 1644.36 136.433C1642.29 144.469 1642.72 144.886 1650.24 149.671C1657.76 154.456 1651.17 164.762 1645.5 164.762Z" fill="#DE9885"/>
<path d="M1658.8 122.546L1660.59 125.527L1663.83 123.761L1672.8 131.76L1672.62 132.067C1672.43 132.386 1672.27 132.705 1672.11 133.011C1666.19 144.397 1675.34 148.789 1675.34 148.789L1679.23 151.243L1682.43 153.28C1684.82 150.469 1687.39 147.818 1690.13 145.342L1690.58 144.913C1694.72 140.954 1697.41 135.726 1698.24 130.06C1699.07 124.394 1697.98 118.615 1695.14 113.639L1693.66 111.32C1689.05 110.106 1668.83 110.326 1658.8 122.546Z" fill="#778B8C"/>
<path d="M1667.5 134.838C1664.11 134.838 1661.36 132.086 1661.36 128.691C1661.36 125.296 1664.11 122.544 1667.5 122.544C1670.9 122.544 1673.65 125.296 1673.65 128.691C1673.65 132.086 1670.9 134.838 1667.5 134.838Z" fill="#DE9885"/>
<path d="M1625.06 287.328L1607.55 297.572C1599.43 302.316 1593.37 309.926 1590.57 318.91C1587.76 327.893 1588.42 337.599 1592.41 346.121L1623.09 412.692L1659.89 401.27L1633.1 339.471L1672.89 327.202L1680.33 467.069H1715.3C1714.07 392.854 1722.05 306.97 1715.3 277.524L1647.17 272.617L1625.06 287.328Z" fill="#57697B"/>
<path d="M1730.99 212.903L1715.04 179.862C1712.14 173.858 1707.51 168.86 1701.74 165.513C1695.98 162.165 1689.34 160.621 1682.69 161.079L1603.27 165.741V197.849L1633.24 203.701L1625.06 287.327C1648.79 272.2 1683.34 305.117 1702.36 293.67L1721.37 282.223C1721.99 259.722 1714.63 232.117 1714.22 225.982L1730.99 212.903Z" fill="white"/>
<path d="M1667.5 421.456C1666.27 414.549 1662.32 410.561 1659.66 401.826L1643.98 406.881C1645.42 416.917 1635.39 421.051 1639.39 430.523L1667.5 421.456Z" fill="#0D2135"/>
</g>
</g>
<defs>
<clipPath id="clip0_7713_20358">
<rect width="2648" height="450" fill="white"/>
</clipPath>
</defs>
</svg>
